<mxfile host="app.diagrams.net" modified="2023-11-07T18:02:50.552Z" agent="Mozilla/5.0 (Windows NT 10.0; Win64; x64; rv:109.0) Gecko/20100101 Firefox/119.0" etag="63aotv6go09K7fYdZzZM" version="22.0.8" type="google">
  <diagram name="Page-1" id="rh3G6_-PAPEWU3ZlsqPR">
    <mxGraphModel grid="1" page="1" gridSize="10" guides="1" tooltips="1" connect="1" arrows="1" fold="1" pageScale="1" pageWidth="850" pageHeight="1100" math="1" shadow="0">
      <root>
        <mxCell id="0" />
        <mxCell id="1" parent="0" />
        <mxCell id="LNBtL-OUFiTYOPxDa9G3-7" value="" style="ellipse;whiteSpace=wrap;html=1;strokeColor=#000000;" vertex="1" parent="1">
          <mxGeometry x="3030" y="680" width="410" height="410" as="geometry" />
        </mxCell>
        <mxCell id="vTeC7MxBw6ICrQF9Bca6-48" value="&lt;font style=&quot;font-size: 100px;&quot;&gt;ECLSS&lt;/font&gt;" style="text;whiteSpace=wrap;html=1;fillColor=none;fontSize=50;" vertex="1" parent="1">
          <mxGeometry x="3270" y="35" width="270" height="40" as="geometry" />
        </mxCell>
        <mxCell id="LNBtL-OUFiTYOPxDa9G3-3" value="&lt;font style=&quot;font-size: 14px;&quot;&gt;$$F_{process\_waste\_water}$$&lt;/font&gt;" style="ellipse;whiteSpace=wrap;html=1;aspect=fixed;fillColor=#A9C4EB;" vertex="1" parent="1">
          <mxGeometry x="3160" y="980" width="80" height="80" as="geometry" />
        </mxCell>
        <mxCell id="LNBtL-OUFiTYOPxDa9G3-6" value="&lt;font style=&quot;font-size: 10px;&quot;&gt;Aging&lt;/font&gt;" style="ellipse;whiteSpace=wrap;html=1;aspect=fixed;fillColor=#FFFFFF;strokeColor=#F19C99;strokeWidth=2;dashed=1;dashPattern=8 8;" vertex="1" parent="1">
          <mxGeometry x="3075" y="740" width="50" height="50" as="geometry" />
        </mxCell>
        <mxCell id="LNBtL-OUFiTYOPxDa9G3-8" value="&lt;font style=&quot;font-size: 14px;&quot;&gt;$$V_{power}$$&lt;/font&gt;" style="ellipse;whiteSpace=wrap;html=1;aspect=fixed;fillColor=#FFFFFF;strokeColor=#080505;strokeWidth=1;" vertex="1" parent="1">
          <mxGeometry x="3335.32" y="840" width="80" height="80" as="geometry" />
        </mxCell>
        <mxCell id="LNBtL-OUFiTYOPxDa9G3-11" value="&lt;font style=&quot;font-size: 14px;&quot;&gt;$$H_{mechanism}$$&lt;/font&gt;" style="ellipse;whiteSpace=wrap;html=1;aspect=fixed;fillColor=#CCCCCC;" vertex="1" parent="1">
          <mxGeometry x="3155" y="770" width="80" height="80" as="geometry" />
        </mxCell>
        <mxCell id="LNBtL-OUFiTYOPxDa9G3-13" value="&lt;font style=&quot;font-size: 14px;&quot;&gt;$$F_{output\_water}$$&lt;/font&gt;" style="ellipse;whiteSpace=wrap;html=1;aspect=fixed;fillColor=#A9C4EB;" vertex="1" parent="1">
          <mxGeometry x="3295" y="970" width="80" height="80" as="geometry" />
        </mxCell>
        <mxCell id="LNBtL-OUFiTYOPxDa9G3-19" value="" style="endArrow=classic;html=1;rounded=0;" edge="1" parent="1" source="LNBtL-OUFiTYOPxDa9G3-6" target="LNBtL-OUFiTYOPxDa9G3-11">
          <mxGeometry width="50" height="50" relative="1" as="geometry">
            <mxPoint x="3105" y="950" as="sourcePoint" />
            <mxPoint x="3155" y="900" as="targetPoint" />
          </mxGeometry>
        </mxCell>
        <mxCell id="LNBtL-OUFiTYOPxDa9G3-20" value="" style="ellipse;whiteSpace=wrap;html=1;aspect=fixed;fillColor=#000000;strokeColor=#000000;" vertex="1" parent="1">
          <mxGeometry x="3245.32" y="900" width="10" height="10" as="geometry" />
        </mxCell>
        <mxCell id="LNBtL-OUFiTYOPxDa9G3-22" value="" style="endArrow=classic;html=1;rounded=0;" edge="1" parent="1" source="LNBtL-OUFiTYOPxDa9G3-11" target="LNBtL-OUFiTYOPxDa9G3-20">
          <mxGeometry width="50" height="50" relative="1" as="geometry">
            <mxPoint x="3270" y="875.5" as="sourcePoint" />
            <mxPoint x="3315" y="894.5" as="targetPoint" />
          </mxGeometry>
        </mxCell>
        <mxCell id="LNBtL-OUFiTYOPxDa9G3-23" value="" style="endArrow=classic;html=1;rounded=0;" edge="1" parent="1" source="LNBtL-OUFiTYOPxDa9G3-8" target="LNBtL-OUFiTYOPxDa9G3-20">
          <mxGeometry width="50" height="50" relative="1" as="geometry">
            <mxPoint x="3285" y="860" as="sourcePoint" />
            <mxPoint x="3330" y="879" as="targetPoint" />
          </mxGeometry>
        </mxCell>
        <mxCell id="LNBtL-OUFiTYOPxDa9G3-27" value="" style="endArrow=classic;html=1;rounded=0;" edge="1" parent="1" source="LNBtL-OUFiTYOPxDa9G3-20" target="LNBtL-OUFiTYOPxDa9G3-13">
          <mxGeometry width="50" height="50" relative="1" as="geometry">
            <mxPoint x="3285" y="946" as="sourcePoint" />
            <mxPoint x="3336" y="960" as="targetPoint" />
          </mxGeometry>
        </mxCell>
        <mxCell id="LNBtL-OUFiTYOPxDa9G3-28" value="" style="endArrow=classic;html=1;rounded=0;" edge="1" parent="1" source="LNBtL-OUFiTYOPxDa9G3-20" target="LNBtL-OUFiTYOPxDa9G3-3">
          <mxGeometry width="50" height="50" relative="1" as="geometry">
            <mxPoint x="3229.32" y="910" as="sourcePoint" />
            <mxPoint x="3205.002290266712" y="985.1774864512024" as="targetPoint" />
          </mxGeometry>
        </mxCell>
        <mxCell id="LNBtL-OUFiTYOPxDa9G3-29" value="Wear" style="ellipse;whiteSpace=wrap;html=1;aspect=fixed;fillColor=#FFFFFF;strokeColor=#F19C99;strokeWidth=2;dashed=1;dashPattern=8 8;" vertex="1" parent="1">
          <mxGeometry x="3155" y="690" width="50" height="50" as="geometry" />
        </mxCell>
        <mxCell id="LNBtL-OUFiTYOPxDa9G3-31" value="" style="endArrow=classic;html=1;rounded=0;" edge="1" parent="1" source="LNBtL-OUFiTYOPxDa9G3-29" target="LNBtL-OUFiTYOPxDa9G3-11">
          <mxGeometry width="50" height="50" relative="1" as="geometry">
            <mxPoint x="3113" y="855" as="sourcePoint" />
            <mxPoint x="3158" y="874" as="targetPoint" />
          </mxGeometry>
        </mxCell>
        <mxCell id="WJJ-MJG1OjWS8yUtJ8Sh-5" value="" style="endArrow=classic;html=1;rounded=0;" edge="1" parent="1" source="WJJ-MJG1OjWS8yUtJ8Sh-11" target="LNBtL-OUFiTYOPxDa9G3-20">
          <mxGeometry width="50" height="50" relative="1" as="geometry">
            <mxPoint x="3297.7596327834635" y="803.0811424514461" as="sourcePoint" />
            <mxPoint x="3295" y="879" as="targetPoint" />
          </mxGeometry>
        </mxCell>
        <mxCell id="WJJ-MJG1OjWS8yUtJ8Sh-6" value="" style="endArrow=classic;html=1;rounded=0;" edge="1" parent="1" source="WJJ-MJG1OjWS8yUtJ8Sh-9" target="LNBtL-OUFiTYOPxDa9G3-20">
          <mxGeometry width="50" height="50" relative="1" as="geometry">
            <mxPoint x="3144.520481350046" y="886.1750752109447" as="sourcePoint" />
            <mxPoint x="3216.5" y="934.5" as="targetPoint" />
          </mxGeometry>
        </mxCell>
        <mxCell id="WJJ-MJG1OjWS8yUtJ8Sh-9" value="&lt;font style=&quot;font-size: 14px;&quot;&gt;$$F_{pump}$$&lt;/font&gt;" style="ellipse;whiteSpace=wrap;html=1;aspect=fixed;fillColor=#A9C4EB;" vertex="1" parent="1">
          <mxGeometry x="3060" y="820" width="80" height="80" as="geometry" />
        </mxCell>
        <mxCell id="WJJ-MJG1OjWS8yUtJ8Sh-10" value="&lt;font style=&quot;font-size: 14px;&quot;&gt;$$F_{filter}$$&lt;/font&gt;" style="ellipse;whiteSpace=wrap;html=1;aspect=fixed;fillColor=#A9C4EB;" vertex="1" parent="1">
          <mxGeometry x="3060" y="910" width="80" height="80" as="geometry" />
        </mxCell>
        <mxCell id="WJJ-MJG1OjWS8yUtJ8Sh-11" value="&lt;font style=&quot;font-size: 14px;&quot;&gt;$$F_{microbial\_check\_valve}$$&lt;/font&gt;" style="ellipse;whiteSpace=wrap;html=1;aspect=fixed;fillColor=#A9C4EB;" vertex="1" parent="1">
          <mxGeometry x="3265" y="740" width="80" height="80" as="geometry" />
        </mxCell>
        <mxCell id="WJJ-MJG1OjWS8yUtJ8Sh-13" value="" style="endArrow=classic;html=1;rounded=0;" edge="1" parent="1" source="WJJ-MJG1OjWS8yUtJ8Sh-10" target="LNBtL-OUFiTYOPxDa9G3-20">
          <mxGeometry width="50" height="50" relative="1" as="geometry">
            <mxPoint x="3275" y="920" as="sourcePoint" />
            <mxPoint x="3230" y="995" as="targetPoint" />
          </mxGeometry>
        </mxCell>
        <mxCell id="eIfRhoeYhjTRWgRVjLV7-23" value="" style="ellipse;whiteSpace=wrap;html=1;strokeColor=#000000;" vertex="1" parent="1">
          <mxGeometry x="4080" y="-175" width="410" height="410" as="geometry" />
        </mxCell>
        <mxCell id="eIfRhoeYhjTRWgRVjLV7-24" value="Carbon Dioxide Scrubber" style="text;whiteSpace=wrap;html=1;fillColor=none;fontSize=50;" vertex="1" parent="1">
          <mxGeometry x="4190" y="-340" width="270" height="40" as="geometry" />
        </mxCell>
        <mxCell id="eIfRhoeYhjTRWgRVjLV7-25" value="&lt;font style=&quot;font-size: 14px;&quot;&gt;$$F_{remove\_CO_2}$$&lt;/font&gt;" style="ellipse;whiteSpace=wrap;html=1;aspect=fixed;fillColor=#A9C4EB;" vertex="1" parent="1">
          <mxGeometry x="4160" y="110" width="80" height="80" as="geometry" />
        </mxCell>
        <mxCell id="eIfRhoeYhjTRWgRVjLV7-26" value="&lt;font style=&quot;font-size: 10px;&quot;&gt;Aging&lt;/font&gt;" style="ellipse;whiteSpace=wrap;html=1;aspect=fixed;fillColor=#FFFFFF;strokeColor=#F19C99;strokeWidth=2;dashed=1;dashPattern=8 8;" vertex="1" parent="1">
          <mxGeometry x="4160" y="-120" width="50" height="50" as="geometry" />
        </mxCell>
        <mxCell id="eIfRhoeYhjTRWgRVjLV7-27" value="&lt;font style=&quot;font-size: 14px;&quot;&gt;$$V_{power}$$&lt;/font&gt;" style="ellipse;whiteSpace=wrap;html=1;aspect=fixed;fillColor=#FFFFFF;strokeColor=#080505;strokeWidth=1;" vertex="1" parent="1">
          <mxGeometry x="4270" y="-120" width="80" height="80" as="geometry" />
        </mxCell>
        <mxCell id="eIfRhoeYhjTRWgRVjLV7-28" value="&lt;font style=&quot;font-size: 14px;&quot;&gt;$$H_{mechanism}$$&lt;/font&gt;" style="ellipse;whiteSpace=wrap;html=1;aspect=fixed;fillColor=#CCCCCC;" vertex="1" parent="1">
          <mxGeometry x="4105" y="25" width="80" height="80" as="geometry" />
        </mxCell>
        <mxCell id="eIfRhoeYhjTRWgRVjLV7-29" value="" style="endArrow=classic;html=1;rounded=0;" edge="1" parent="1" source="eIfRhoeYhjTRWgRVjLV7-26" target="eIfRhoeYhjTRWgRVjLV7-40">
          <mxGeometry width="50" height="50" relative="1" as="geometry">
            <mxPoint x="4130" y="115" as="sourcePoint" />
            <mxPoint x="4180" y="65" as="targetPoint" />
          </mxGeometry>
        </mxCell>
        <mxCell id="eIfRhoeYhjTRWgRVjLV7-30" value="" style="ellipse;whiteSpace=wrap;html=1;aspect=fixed;fillColor=#000000;strokeColor=#000000;" vertex="1" parent="1">
          <mxGeometry x="4300" y="65" width="10" height="10" as="geometry" />
        </mxCell>
        <mxCell id="eIfRhoeYhjTRWgRVjLV7-31" value="" style="endArrow=classic;html=1;rounded=0;" edge="1" parent="1" source="eIfRhoeYhjTRWgRVjLV7-28" target="eIfRhoeYhjTRWgRVjLV7-30">
          <mxGeometry width="50" height="50" relative="1" as="geometry">
            <mxPoint x="4295" y="40.5" as="sourcePoint" />
            <mxPoint x="4340" y="59.5" as="targetPoint" />
          </mxGeometry>
        </mxCell>
        <mxCell id="eIfRhoeYhjTRWgRVjLV7-32" value="" style="endArrow=classic;html=1;rounded=0;" edge="1" parent="1" source="eIfRhoeYhjTRWgRVjLV7-27" target="eIfRhoeYhjTRWgRVjLV7-30">
          <mxGeometry width="50" height="50" relative="1" as="geometry">
            <mxPoint x="4310" y="25" as="sourcePoint" />
            <mxPoint x="4355" y="44" as="targetPoint" />
          </mxGeometry>
        </mxCell>
        <mxCell id="eIfRhoeYhjTRWgRVjLV7-33" value="" style="endArrow=classic;html=1;rounded=0;" edge="1" parent="1" source="eIfRhoeYhjTRWgRVjLV7-30" target="eIfRhoeYhjTRWgRVjLV7-25">
          <mxGeometry width="50" height="50" relative="1" as="geometry">
            <mxPoint x="4269" y="75" as="sourcePoint" />
            <mxPoint x="4320" y="89" as="targetPoint" />
          </mxGeometry>
        </mxCell>
        <mxCell id="eIfRhoeYhjTRWgRVjLV7-34" value="Wear" style="ellipse;whiteSpace=wrap;html=1;aspect=fixed;fillColor=#FFFFFF;strokeColor=#F19C99;strokeWidth=2;dashed=1;dashPattern=8 8;" vertex="1" parent="1">
          <mxGeometry x="4105" y="-55" width="50" height="50" as="geometry" />
        </mxCell>
        <mxCell id="eIfRhoeYhjTRWgRVjLV7-35" value="" style="endArrow=classic;html=1;rounded=0;" edge="1" parent="1" source="eIfRhoeYhjTRWgRVjLV7-34" target="eIfRhoeYhjTRWgRVjLV7-40">
          <mxGeometry width="50" height="50" relative="1" as="geometry">
            <mxPoint x="4138" y="20" as="sourcePoint" />
            <mxPoint x="4183" y="39" as="targetPoint" />
          </mxGeometry>
        </mxCell>
        <mxCell id="eIfRhoeYhjTRWgRVjLV7-36" value="&lt;font style=&quot;font-size: 14px;&quot;&gt;$$F_{output\_CO_2}$$&lt;/font&gt;" style="ellipse;whiteSpace=wrap;html=1;aspect=fixed;fillColor=#A9C4EB;" vertex="1" parent="1">
          <mxGeometry x="4290" y="145" width="80" height="80" as="geometry" />
        </mxCell>
        <mxCell id="eIfRhoeYhjTRWgRVjLV7-37" value="" style="endArrow=classic;html=1;rounded=0;" edge="1" parent="1" source="eIfRhoeYhjTRWgRVjLV7-30" target="eIfRhoeYhjTRWgRVjLV7-36">
          <mxGeometry width="50" height="50" relative="1" as="geometry">
            <mxPoint x="4300" y="65" as="sourcePoint" />
            <mxPoint x="4382" y="147" as="targetPoint" />
          </mxGeometry>
        </mxCell>
        <mxCell id="eIfRhoeYhjTRWgRVjLV7-38" value="&lt;font style=&quot;font-size: 14px;&quot;&gt;$$H_{scrubbing\_material}$$&lt;/font&gt;" style="ellipse;whiteSpace=wrap;html=1;aspect=fixed;fillColor=#CCCCCC;" vertex="1" parent="1">
          <mxGeometry x="4200" y="-45" width="80" height="80" as="geometry" />
        </mxCell>
        <mxCell id="eIfRhoeYhjTRWgRVjLV7-39" value="" style="endArrow=classic;html=1;rounded=0;" edge="1" parent="1" source="eIfRhoeYhjTRWgRVjLV7-38" target="eIfRhoeYhjTRWgRVjLV7-30">
          <mxGeometry width="50" height="50" relative="1" as="geometry">
            <mxPoint x="4195" y="76" as="sourcePoint" />
            <mxPoint x="4310" y="80" as="targetPoint" />
          </mxGeometry>
        </mxCell>
        <mxCell id="eIfRhoeYhjTRWgRVjLV7-40" value="" style="ellipse;whiteSpace=wrap;html=1;aspect=fixed;fillColor=#000000;strokeColor=#000000;" vertex="1" parent="1">
          <mxGeometry x="4180" y="-35" width="10" height="10" as="geometry" />
        </mxCell>
        <mxCell id="eIfRhoeYhjTRWgRVjLV7-41" value="" style="endArrow=classic;html=1;rounded=0;" edge="1" parent="1" source="eIfRhoeYhjTRWgRVjLV7-40" target="eIfRhoeYhjTRWgRVjLV7-28">
          <mxGeometry width="50" height="50" relative="1" as="geometry">
            <mxPoint x="4135" y="-40" as="sourcePoint" />
            <mxPoint x="4115" y="21" as="targetPoint" />
          </mxGeometry>
        </mxCell>
        <mxCell id="eIfRhoeYhjTRWgRVjLV7-42" value="" style="endArrow=classic;html=1;rounded=0;" edge="1" parent="1" source="eIfRhoeYhjTRWgRVjLV7-40" target="eIfRhoeYhjTRWgRVjLV7-38">
          <mxGeometry width="50" height="50" relative="1" as="geometry">
            <mxPoint x="4197" y="-76" as="sourcePoint" />
            <mxPoint x="4177" y="-15" as="targetPoint" />
          </mxGeometry>
        </mxCell>
        <mxCell id="eIfRhoeYhjTRWgRVjLV7-43" value="&lt;font style=&quot;font-size: 14px;&quot;&gt;$$V_{air}$$&lt;/font&gt;" style="ellipse;whiteSpace=wrap;html=1;aspect=fixed;fillColor=#FFFFFF;strokeColor=#080505;strokeWidth=1;" vertex="1" parent="1">
          <mxGeometry x="4350" y="-70" width="80" height="80" as="geometry" />
        </mxCell>
        <mxCell id="eIfRhoeYhjTRWgRVjLV7-44" value="" style="endArrow=classic;html=1;rounded=0;" edge="1" parent="1" source="eIfRhoeYhjTRWgRVjLV7-43" target="eIfRhoeYhjTRWgRVjLV7-30">
          <mxGeometry width="50" height="50" relative="1" as="geometry">
            <mxPoint x="4470" y="60" as="sourcePoint" />
            <mxPoint x="4320" y="79" as="targetPoint" />
          </mxGeometry>
        </mxCell>
        <mxCell id="eIfRhoeYhjTRWgRVjLV7-45" value="Water Processing Assembly" style="text;whiteSpace=wrap;html=1;fillColor=none;fontSize=50;" vertex="1" parent="1">
          <mxGeometry x="3460" y="710" width="270" height="40" as="geometry" />
        </mxCell>
        <mxCell id="eIfRhoeYhjTRWgRVjLV7-46" value="" style="ellipse;whiteSpace=wrap;html=1;" vertex="1" parent="1">
          <mxGeometry x="2380" y="190" width="680" height="655" as="geometry" />
        </mxCell>
        <mxCell id="eIfRhoeYhjTRWgRVjLV7-48" value="" style="endArrow=classic;html=1;rounded=0;" edge="1" parent="1" source="eIfRhoeYhjTRWgRVjLV7-86" target="eIfRhoeYhjTRWgRVjLV7-66">
          <mxGeometry width="50" height="50" relative="1" as="geometry">
            <mxPoint x="2730" y="542.5" as="sourcePoint" />
            <mxPoint x="2743.4896168478067" y="542.5467099449243" as="targetPoint" />
          </mxGeometry>
        </mxCell>
        <mxCell id="eIfRhoeYhjTRWgRVjLV7-49" style="edgeStyle=orthogonalEdgeStyle;rounded=0;orthogonalLoop=1;jettySize=auto;html=1;exitX=0.5;exitY=1;exitDx=0;exitDy=0;" edge="1" parent="1">
          <mxGeometry relative="1" as="geometry">
            <mxPoint x="2885" y="652.5" as="sourcePoint" />
            <mxPoint x="2885" y="652.5" as="targetPoint" />
          </mxGeometry>
        </mxCell>
        <mxCell id="eIfRhoeYhjTRWgRVjLV7-50" value="" style="endArrow=classic;html=1;rounded=0;" edge="1" parent="1" source="eIfRhoeYhjTRWgRVjLV7-85" target="eIfRhoeYhjTRWgRVjLV7-66">
          <mxGeometry width="50" height="50" relative="1" as="geometry">
            <mxPoint x="2752.8885438199986" y="616.7229123600032" as="sourcePoint" />
            <mxPoint x="2768.1836935632537" y="612.4587416084178" as="targetPoint" />
          </mxGeometry>
        </mxCell>
        <mxCell id="eIfRhoeYhjTRWgRVjLV7-51" value="" style="endArrow=classic;html=1;rounded=0;" edge="1" parent="1" source="eIfRhoeYhjTRWgRVjLV7-76" target="eIfRhoeYhjTRWgRVjLV7-66">
          <mxGeometry width="50" height="50" relative="1" as="geometry">
            <mxPoint x="2853.9695303842186" y="601.3101897656788" as="sourcePoint" />
            <mxPoint x="2807.249711188229" y="587.0759739432201" as="targetPoint" />
          </mxGeometry>
        </mxCell>
        <mxCell id="eIfRhoeYhjTRWgRVjLV7-52" value="" style="endArrow=classic;html=1;rounded=0;" edge="1" parent="1">
          <mxGeometry width="50" height="50" relative="1" as="geometry">
            <mxPoint x="2690" y="442.5" as="sourcePoint" />
            <mxPoint x="2690" y="442.5" as="targetPoint" />
          </mxGeometry>
        </mxCell>
        <mxCell id="eIfRhoeYhjTRWgRVjLV7-54" value="V&lt;sub&gt;damage&lt;/sub&gt;" style="ellipse;whiteSpace=wrap;html=1;aspect=fixed;" vertex="1" parent="1">
          <mxGeometry x="2560" y="437.5" width="80" height="80" as="geometry" />
        </mxCell>
        <mxCell id="eIfRhoeYhjTRWgRVjLV7-55" value="" style="endArrow=classic;html=1;rounded=0;" edge="1" parent="1" source="eIfRhoeYhjTRWgRVjLV7-54" target="eIfRhoeYhjTRWgRVjLV7-86">
          <mxGeometry width="50" height="50" relative="1" as="geometry">
            <mxPoint x="2660" y="522.5" as="sourcePoint" />
            <mxPoint x="2653.4475380551903" y="501.25446135786206" as="targetPoint" />
          </mxGeometry>
        </mxCell>
        <mxCell id="eIfRhoeYhjTRWgRVjLV7-56" value="" style="endArrow=classic;html=1;rounded=0;" edge="1" parent="1" source="eIfRhoeYhjTRWgRVjLV7-87" target="eIfRhoeYhjTRWgRVjLV7-66">
          <mxGeometry width="50" height="50" relative="1" as="geometry">
            <mxPoint x="2827.028715655216" y="495.24629895958606" as="sourcePoint" />
            <mxPoint x="2802.6787145305875" y="549.4326720960562" as="targetPoint" />
          </mxGeometry>
        </mxCell>
        <mxCell id="eIfRhoeYhjTRWgRVjLV7-57" value="&lt;font size=&quot;1&quot;&gt;Foreign Debris&lt;/font&gt;" style="ellipse;whiteSpace=wrap;html=1;aspect=fixed;fillColor=#FFFFFF;strokeColor=#F19C99;strokeWidth=2;dashed=1;dashPattern=8 8;" vertex="1" parent="1">
          <mxGeometry x="2785" y="332.5" width="50" height="50" as="geometry" />
        </mxCell>
        <mxCell id="eIfRhoeYhjTRWgRVjLV7-58" value="" style="shape=flexArrow;endArrow=classic;html=1;rounded=0;width=0.3225806451612903;endSize=1.064804469273743;endWidth=2.980717246350694;strokeColor=#F19C99;" edge="1" parent="1" source="eIfRhoeYhjTRWgRVjLV7-57" target="eIfRhoeYhjTRWgRVjLV7-87">
          <mxGeometry width="50" height="50" relative="1" as="geometry">
            <mxPoint x="3750" y="766.5" as="sourcePoint" />
            <mxPoint x="2835.76018689632" y="425.1204906028411" as="targetPoint" />
          </mxGeometry>
        </mxCell>
        <mxCell id="eIfRhoeYhjTRWgRVjLV7-59" value="&lt;font size=&quot;1&quot;&gt;Inlet Blockage&lt;/font&gt;" style="ellipse;whiteSpace=wrap;html=1;aspect=fixed;fillColor=#FFFFFF;strokeColor=#F19C99;strokeWidth=2;dashed=1;dashPattern=8 8;" vertex="1" parent="1">
          <mxGeometry x="2900" y="372.5" width="50" height="50" as="geometry" />
        </mxCell>
        <mxCell id="eIfRhoeYhjTRWgRVjLV7-60" value="&lt;font size=&quot;1&quot;&gt;Cavitation&lt;/font&gt;" style="ellipse;whiteSpace=wrap;html=1;aspect=fixed;fillColor=#FFFFFF;strokeColor=#F19C99;strokeWidth=2;dashed=1;dashPattern=8 8;" vertex="1" parent="1">
          <mxGeometry x="2910" y="477.5" width="50" height="50" as="geometry" />
        </mxCell>
        <mxCell id="eIfRhoeYhjTRWgRVjLV7-61" value="" style="shape=flexArrow;endArrow=classic;html=1;rounded=0;width=0.3225806451612903;endSize=1.064804469273743;endWidth=2.980717246350694;strokeColor=#F19C99;" edge="1" parent="1" source="eIfRhoeYhjTRWgRVjLV7-60" target="eIfRhoeYhjTRWgRVjLV7-87">
          <mxGeometry width="50" height="50" relative="1" as="geometry">
            <mxPoint x="2978" y="497.5" as="sourcePoint" />
            <mxPoint x="2886.192748088034" y="479.53188145319245" as="targetPoint" />
          </mxGeometry>
        </mxCell>
        <mxCell id="eIfRhoeYhjTRWgRVjLV7-62" value="&lt;font size=&quot;1&quot;&gt;Short&amp;nbsp;Circuit&lt;/font&gt;" style="ellipse;whiteSpace=wrap;html=1;aspect=fixed;fillColor=#FFFFFF;strokeColor=#F19C99;strokeWidth=2;dashed=1;dashPattern=8 8;" vertex="1" parent="1">
          <mxGeometry x="2825" y="740" width="50" height="50" as="geometry" />
        </mxCell>
        <mxCell id="eIfRhoeYhjTRWgRVjLV7-63" value="" style="shape=flexArrow;endArrow=classic;html=1;rounded=0;width=0.3225806451612903;endSize=1.064804469273743;endWidth=2.980717246350694;strokeColor=#F19C99;" edge="1" parent="1" source="eIfRhoeYhjTRWgRVjLV7-62" target="eIfRhoeYhjTRWgRVjLV7-85">
          <mxGeometry width="50" height="50" relative="1" as="geometry">
            <mxPoint x="2954" y="554.5" as="sourcePoint" />
            <mxPoint x="2758.0673279039397" y="685.1787145305811" as="targetPoint" />
          </mxGeometry>
        </mxCell>
        <mxCell id="eIfRhoeYhjTRWgRVjLV7-64" value="&lt;font size=&quot;1&quot;&gt;Overload&lt;/font&gt;" style="ellipse;whiteSpace=wrap;html=1;aspect=fixed;fillColor=#FFFFFF;strokeColor=#F19C99;strokeWidth=2;dashed=1;dashPattern=8 8;" vertex="1" parent="1">
          <mxGeometry x="2620" y="732.5" width="50" height="50" as="geometry" />
        </mxCell>
        <mxCell id="eIfRhoeYhjTRWgRVjLV7-65" value="" style="shape=flexArrow;endArrow=classic;html=1;rounded=0;width=0.3225806451612903;endSize=1.064804469273743;endWidth=2.980717246350694;strokeColor=#F19C99;" edge="1" parent="1" source="eIfRhoeYhjTRWgRVjLV7-64" target="eIfRhoeYhjTRWgRVjLV7-85">
          <mxGeometry width="50" height="50" relative="1" as="geometry">
            <mxPoint x="2838" y="739.5" as="sourcePoint" />
            <mxPoint x="2703.9554399953495" y="677.7237050037788" as="targetPoint" />
          </mxGeometry>
        </mxCell>
        <mxCell id="eIfRhoeYhjTRWgRVjLV7-66" value="&lt;div&gt;&lt;font style=&quot;font-size: 14px;&quot;&gt;F&lt;sub&gt;fluid_output&lt;/sub&gt;&lt;/font&gt;&lt;/div&gt;" style="ellipse;whiteSpace=wrap;html=1;aspect=fixed;fillColor=#A9C4EB;" vertex="1" parent="1">
          <mxGeometry x="2850" y="570" width="80" height="80" as="geometry" />
        </mxCell>
        <mxCell id="eIfRhoeYhjTRWgRVjLV7-67" value="&lt;font size=&quot;1&quot;&gt;Metorite impact&lt;/font&gt;" style="ellipse;whiteSpace=wrap;html=1;aspect=fixed;fillColor=#FFFFFF;strokeColor=#F19C99;strokeWidth=2;dashed=1;dashPattern=8 8;" vertex="1" parent="1">
          <mxGeometry x="2657.5" y="372.5" width="50" height="50" as="geometry" />
        </mxCell>
        <mxCell id="eIfRhoeYhjTRWgRVjLV7-68" value="" style="shape=flexArrow;endArrow=classic;html=1;rounded=0;width=0.3225806451612903;endSize=1.064804469273743;endWidth=2.980717246350694;strokeColor=#F19C99;" edge="1" parent="1" source="eIfRhoeYhjTRWgRVjLV7-67" target="eIfRhoeYhjTRWgRVjLV7-54">
          <mxGeometry width="50" height="50" relative="1" as="geometry">
            <mxPoint x="2908" y="411.5" as="sourcePoint" />
            <mxPoint x="2892" y="464.5" as="targetPoint" />
          </mxGeometry>
        </mxCell>
        <mxCell id="eIfRhoeYhjTRWgRVjLV7-69" value="&lt;font size=&quot;1&quot;&gt;Bolt Damage&lt;/font&gt;" style="ellipse;whiteSpace=wrap;html=1;aspect=fixed;fillColor=#FFFFFF;strokeColor=#F19C99;strokeWidth=2;dashed=1;dashPattern=8 8;" vertex="1" parent="1">
          <mxGeometry x="2580" y="342.5" width="50" height="50" as="geometry" />
        </mxCell>
        <mxCell id="eIfRhoeYhjTRWgRVjLV7-70" value="" style="shape=flexArrow;endArrow=classic;html=1;rounded=0;width=0.3225806451612903;endSize=1.064804469273743;endWidth=2.980717246350694;strokeColor=#F19C99;" edge="1" parent="1" source="eIfRhoeYhjTRWgRVjLV7-69" target="eIfRhoeYhjTRWgRVjLV7-54">
          <mxGeometry width="50" height="50" relative="1" as="geometry">
            <mxPoint x="2661" y="425.5" as="sourcePoint" />
            <mxPoint x="2627" y="462.5" as="targetPoint" />
          </mxGeometry>
        </mxCell>
        <mxCell id="eIfRhoeYhjTRWgRVjLV7-71" value="&lt;font size=&quot;1&quot;&gt;Aging&lt;/font&gt;" style="ellipse;whiteSpace=wrap;html=1;aspect=fixed;fillColor=#FFFFFF;strokeColor=#F19C99;strokeWidth=2;dashed=1;dashPattern=8 8;" vertex="1" parent="1">
          <mxGeometry x="2470" y="467.5" width="50" height="50" as="geometry" />
        </mxCell>
        <mxCell id="eIfRhoeYhjTRWgRVjLV7-72" value="" style="shape=flexArrow;endArrow=classic;html=1;rounded=0;width=0.3225806451612903;endSize=1.064804469273743;endWidth=2.980717246350694;strokeColor=#F19C99;" edge="1" parent="1" source="eIfRhoeYhjTRWgRVjLV7-71" target="eIfRhoeYhjTRWgRVjLV7-54">
          <mxGeometry width="50" height="50" relative="1" as="geometry">
            <mxPoint x="2588" y="402.5" as="sourcePoint" />
            <mxPoint x="2595" y="452.5" as="targetPoint" />
          </mxGeometry>
        </mxCell>
        <mxCell id="eIfRhoeYhjTRWgRVjLV7-73" value="&lt;font size=&quot;1&quot;&gt;Jam&lt;/font&gt;" style="ellipse;whiteSpace=wrap;html=1;aspect=fixed;fillColor=#FFFFFF;strokeColor=#F19C99;strokeWidth=2;dashed=1;dashPattern=8 8;" vertex="1" parent="1">
          <mxGeometry x="2530" y="552.5" width="50" height="50" as="geometry" />
        </mxCell>
        <mxCell id="eIfRhoeYhjTRWgRVjLV7-74" value="" style="shape=flexArrow;endArrow=classic;html=1;rounded=0;width=0.3225806451612903;endSize=1.064804469273743;endWidth=2.980717246350694;strokeColor=#F19C99;" edge="1" parent="1" source="eIfRhoeYhjTRWgRVjLV7-73" target="eIfRhoeYhjTRWgRVjLV7-54">
          <mxGeometry width="50" height="50" relative="1" as="geometry">
            <mxPoint x="2530" y="500.5" as="sourcePoint" />
            <mxPoint x="2560" y="496.5" as="targetPoint" />
          </mxGeometry>
        </mxCell>
        <mxCell id="eIfRhoeYhjTRWgRVjLV7-75" value="" style="shape=flexArrow;endArrow=classic;html=1;rounded=0;width=0.3225806451612903;endSize=1.064804469273743;endWidth=2.980717246350694;strokeColor=#F19C99;" edge="1" parent="1" source="eIfRhoeYhjTRWgRVjLV7-59" target="eIfRhoeYhjTRWgRVjLV7-87">
          <mxGeometry width="50" height="50" relative="1" as="geometry">
            <mxPoint x="2962" y="531.5" as="sourcePoint" />
            <mxPoint x="2880.2275633115933" y="436.30277846328636" as="targetPoint" />
          </mxGeometry>
        </mxCell>
        <mxCell id="eIfRhoeYhjTRWgRVjLV7-76" value="&lt;font style=&quot;font-size: 14px;&quot;&gt;V&lt;sub&gt;deadheading&lt;/sub&gt;&lt;/font&gt;" style="ellipse;whiteSpace=wrap;html=1;aspect=fixed;fillColor=#FFFFFF;strokeColor=#080505;strokeWidth=1;" vertex="1" parent="1">
          <mxGeometry x="2605" y="570" width="80" height="80" as="geometry" />
        </mxCell>
        <mxCell id="eIfRhoeYhjTRWgRVjLV7-77" value="&lt;font style=&quot;font-size: 10px;&quot;&gt;Human Action&amp;nbsp;&lt;/font&gt;" style="ellipse;whiteSpace=wrap;html=1;aspect=fixed;fillColor=#FFFFFF;strokeColor=#F19C99;strokeWidth=2;dashed=1;dashPattern=8 8;" vertex="1" parent="1">
          <mxGeometry x="2420" y="382.5" width="50" height="50" as="geometry" />
        </mxCell>
        <mxCell id="eIfRhoeYhjTRWgRVjLV7-78" value="&lt;font style=&quot;font-size: 10px;&quot;&gt;Incorrect maintenance procedure&lt;/font&gt;" style="ellipse;whiteSpace=wrap;html=1;aspect=fixed;fillColor=#FFFFFF;strokeColor=#F19C99;strokeWidth=2;dashed=1;dashPattern=8 8;" vertex="1" parent="1">
          <mxGeometry x="2510" y="403.5" width="50" height="50" as="geometry" />
        </mxCell>
        <mxCell id="eIfRhoeYhjTRWgRVjLV7-79" value="" style="shape=flexArrow;endArrow=classic;html=1;rounded=0;width=0.3225806451612903;endSize=1.064804469273743;endWidth=2.980717246350694;strokeColor=#F19C99;" edge="1" parent="1" source="eIfRhoeYhjTRWgRVjLV7-78" target="eIfRhoeYhjTRWgRVjLV7-54">
          <mxGeometry width="50" height="50" relative="1" as="geometry">
            <mxPoint x="2635" y="808.5" as="sourcePoint" />
            <mxPoint x="2415" y="481.5" as="targetPoint" />
          </mxGeometry>
        </mxCell>
        <mxCell id="eIfRhoeYhjTRWgRVjLV7-80" value="" style="shape=flexArrow;endArrow=classic;html=1;rounded=0;width=0.3225806451612903;endSize=1.064804469273743;endWidth=2.980717246350694;strokeColor=#F19C99;" edge="1" parent="1" source="eIfRhoeYhjTRWgRVjLV7-77" target="eIfRhoeYhjTRWgRVjLV7-83">
          <mxGeometry width="50" height="50" relative="1" as="geometry">
            <mxPoint x="2780" y="848.5" as="sourcePoint" />
            <mxPoint x="2645" y="818.5" as="targetPoint" />
          </mxGeometry>
        </mxCell>
        <mxCell id="eIfRhoeYhjTRWgRVjLV7-81" value="" style="shape=flexArrow;endArrow=classic;html=1;rounded=0;width=0.3225806451612903;endSize=1.064804469273743;endWidth=2.980717246350694;strokeColor=#F19C99;" edge="1" parent="1" source="eIfRhoeYhjTRWgRVjLV7-83" target="eIfRhoeYhjTRWgRVjLV7-78">
          <mxGeometry width="50" height="50" relative="1" as="geometry">
            <mxPoint x="2770" y="913.5" as="sourcePoint" />
            <mxPoint x="2790" y="928.5" as="targetPoint" />
          </mxGeometry>
        </mxCell>
        <mxCell id="eIfRhoeYhjTRWgRVjLV7-82" value="&lt;font style=&quot;font-size: 10px;&quot;&gt;Robot Action&amp;nbsp;&lt;/font&gt;" style="ellipse;whiteSpace=wrap;html=1;aspect=fixed;fillColor=#FFFFFF;strokeColor=#F19C99;strokeWidth=2;dashed=1;dashPattern=8 8;" vertex="1" parent="1">
          <mxGeometry x="2480" y="322.5" width="50" height="50" as="geometry" />
        </mxCell>
        <mxCell id="eIfRhoeYhjTRWgRVjLV7-83" value="" style="ellipse;whiteSpace=wrap;html=1;aspect=fixed;fillColor=#000000;strokeColor=#000000;" vertex="1" parent="1">
          <mxGeometry x="2490" y="393.5" width="10" height="10" as="geometry" />
        </mxCell>
        <mxCell id="eIfRhoeYhjTRWgRVjLV7-84" value="" style="shape=flexArrow;endArrow=classic;html=1;rounded=0;width=0.3225806451612903;endSize=1.064804469273743;endWidth=2.980717246350694;strokeColor=#F19C99;" edge="1" parent="1" source="eIfRhoeYhjTRWgRVjLV7-82" target="eIfRhoeYhjTRWgRVjLV7-83">
          <mxGeometry width="50" height="50" relative="1" as="geometry">
            <mxPoint x="2720" y="776.27" as="sourcePoint" />
            <mxPoint x="2806.576385689822" y="880.7272271813727" as="targetPoint" />
          </mxGeometry>
        </mxCell>
        <mxCell id="eIfRhoeYhjTRWgRVjLV7-85" value="&lt;div&gt;&lt;span style=&quot;font-size: 14px;&quot;&gt;F&lt;sub&gt;power&lt;/sub&gt;&lt;/span&gt;&lt;/div&gt;" style="ellipse;whiteSpace=wrap;html=1;aspect=fixed;fillColor=#A9C4EB;" vertex="1" parent="1">
          <mxGeometry x="2707.5" y="652.5" width="80" height="80" as="geometry" />
        </mxCell>
        <mxCell id="eIfRhoeYhjTRWgRVjLV7-86" value="&lt;div&gt;&lt;span style=&quot;font-size: 14px;&quot;&gt;F&lt;sub&gt;pump&lt;/sub&gt;&lt;/span&gt;&lt;/div&gt;" style="ellipse;whiteSpace=wrap;html=1;aspect=fixed;fillColor=#A9C4EB;" vertex="1" parent="1">
          <mxGeometry x="2650" y="472.5" width="80" height="80" as="geometry" />
        </mxCell>
        <mxCell id="eIfRhoeYhjTRWgRVjLV7-87" value="&lt;div&gt;&lt;span style=&quot;font-size: 14px;&quot;&gt;F&lt;sub&gt;fluid_intake&lt;/sub&gt;&lt;/span&gt;&lt;/div&gt;" style="ellipse;whiteSpace=wrap;html=1;aspect=fixed;fillColor=#A9C4EB;" vertex="1" parent="1">
          <mxGeometry x="2810" y="422.5" width="80" height="80" as="geometry" />
        </mxCell>
        <mxCell id="eIfRhoeYhjTRWgRVjLV7-88" value="" style="endArrow=classic;html=1;rounded=0;" edge="1" parent="1" source="eIfRhoeYhjTRWgRVjLV7-66" target="WJJ-MJG1OjWS8yUtJ8Sh-9">
          <mxGeometry width="50" height="50" relative="1" as="geometry">
            <mxPoint x="2790" y="920" as="sourcePoint" />
            <mxPoint x="2955" y="920" as="targetPoint" />
          </mxGeometry>
        </mxCell>
        <mxCell id="eIfRhoeYhjTRWgRVjLV7-89" value="" style="ellipse;whiteSpace=wrap;html=1;strokeColor=#000000;" vertex="1" parent="1">
          <mxGeometry x="2605" y="880" width="370" height="370" as="geometry" />
        </mxCell>
        <mxCell id="eIfRhoeYhjTRWgRVjLV7-90" value="&lt;div&gt;Filter (liquid)&lt;/div&gt;&lt;div&gt;&lt;br&gt;&lt;/div&gt;" style="text;whiteSpace=wrap;html=1;fillColor=none;fontSize=50;" vertex="1" parent="1">
          <mxGeometry x="2632.5" y="950" width="170" height="40" as="geometry" />
        </mxCell>
        <mxCell id="eIfRhoeYhjTRWgRVjLV7-91" value="&lt;font style=&quot;font-size: 10px;&quot;&gt;Aging&lt;/font&gt;" style="ellipse;whiteSpace=wrap;html=1;aspect=fixed;fillColor=#FFFFFF;strokeColor=#F19C99;strokeWidth=2;dashed=1;dashPattern=8 8;" vertex="1" parent="1">
          <mxGeometry x="2792.5" y="1092.5" width="50" height="50" as="geometry" />
        </mxCell>
        <mxCell id="eIfRhoeYhjTRWgRVjLV7-92" value="" style="endArrow=classic;html=1;rounded=0;" edge="1" parent="1" source="eIfRhoeYhjTRWgRVjLV7-91" target="eIfRhoeYhjTRWgRVjLV7-98">
          <mxGeometry width="50" height="50" relative="1" as="geometry">
            <mxPoint x="2702.5" y="1327.5" as="sourcePoint" />
            <mxPoint x="2752.5" y="1277.5" as="targetPoint" />
          </mxGeometry>
        </mxCell>
        <mxCell id="eIfRhoeYhjTRWgRVjLV7-93" value="Wear" style="ellipse;whiteSpace=wrap;html=1;aspect=fixed;fillColor=#FFFFFF;strokeColor=#F19C99;strokeWidth=2;dashed=1;dashPattern=8 8;" vertex="1" parent="1">
          <mxGeometry x="2677.5" y="1157.5" width="50" height="50" as="geometry" />
        </mxCell>
        <mxCell id="eIfRhoeYhjTRWgRVjLV7-94" value="" style="endArrow=classic;html=1;rounded=0;" edge="1" parent="1" source="eIfRhoeYhjTRWgRVjLV7-93" target="eIfRhoeYhjTRWgRVjLV7-98">
          <mxGeometry width="50" height="50" relative="1" as="geometry">
            <mxPoint x="2710.5" y="1232.5" as="sourcePoint" />
            <mxPoint x="2755.5" y="1251.5" as="targetPoint" />
          </mxGeometry>
        </mxCell>
        <mxCell id="eIfRhoeYhjTRWgRVjLV7-95" value="&lt;font style=&quot;font-size: 14px;&quot;&gt;$$F_{remove\_contaminants}$$&lt;/font&gt;" style="ellipse;whiteSpace=wrap;html=1;aspect=fixed;fillColor=#A9C4EB;" vertex="1" parent="1">
          <mxGeometry x="2855" y="950" width="80" height="80" as="geometry" />
        </mxCell>
        <mxCell id="eIfRhoeYhjTRWgRVjLV7-96" value="&lt;font style=&quot;font-size: 14px;&quot;&gt;$$H_{blockage}$$&lt;/font&gt;" style="ellipse;whiteSpace=wrap;html=1;aspect=fixed;fillColor=#CCCCCC;" vertex="1" parent="1">
          <mxGeometry x="2865" y="1060" width="80" height="80" as="geometry" />
        </mxCell>
        <mxCell id="eIfRhoeYhjTRWgRVjLV7-97" value="" style="endArrow=classic;html=1;rounded=0;" edge="1" parent="1" source="eIfRhoeYhjTRWgRVjLV7-96" target="eIfRhoeYhjTRWgRVjLV7-95">
          <mxGeometry width="50" height="50" relative="1" as="geometry">
            <mxPoint x="2720" y="1131" as="sourcePoint" />
            <mxPoint x="2826.726263835347" y="1121.220760456981" as="targetPoint" />
          </mxGeometry>
        </mxCell>
        <mxCell id="eIfRhoeYhjTRWgRVjLV7-98" value="" style="ellipse;whiteSpace=wrap;html=1;aspect=fixed;fillColor=#000000;strokeColor=#000000;" vertex="1" parent="1">
          <mxGeometry x="2752.5" y="1177.5" width="10" height="10" as="geometry" />
        </mxCell>
        <mxCell id="eIfRhoeYhjTRWgRVjLV7-99" value="" style="endArrow=classic;html=1;rounded=0;" edge="1" parent="1" source="eIfRhoeYhjTRWgRVjLV7-98" target="eIfRhoeYhjTRWgRVjLV7-96">
          <mxGeometry width="50" height="50" relative="1" as="geometry">
            <mxPoint x="2722" y="979" as="sourcePoint" />
            <mxPoint x="2702" y="1040" as="targetPoint" />
          </mxGeometry>
        </mxCell>
        <mxCell id="eIfRhoeYhjTRWgRVjLV7-100" value="Usage" style="ellipse;whiteSpace=wrap;html=1;aspect=fixed;fillColor=#FFFFFF;strokeColor=#F19C99;strokeWidth=2;dashed=1;dashPattern=8 8;" vertex="1" parent="1">
          <mxGeometry x="2722.5" y="1097.5" width="50" height="50" as="geometry" />
        </mxCell>
        <mxCell id="eIfRhoeYhjTRWgRVjLV7-101" value="" style="endArrow=classic;html=1;rounded=0;" edge="1" parent="1" source="eIfRhoeYhjTRWgRVjLV7-100" target="eIfRhoeYhjTRWgRVjLV7-98">
          <mxGeometry width="50" height="50" relative="1" as="geometry">
            <mxPoint x="2810.5" y="1145.5" as="sourcePoint" />
            <mxPoint x="2757.5" y="1182.5" as="targetPoint" />
          </mxGeometry>
        </mxCell>
        <mxCell id="eIfRhoeYhjTRWgRVjLV7-116" value="" style="endArrow=classic;html=1;rounded=0;" edge="1" parent="1" source="eIfRhoeYhjTRWgRVjLV7-95" target="WJJ-MJG1OjWS8yUtJ8Sh-10">
          <mxGeometry width="50" height="50" relative="1" as="geometry">
            <mxPoint x="2837" y="1260" as="sourcePoint" />
            <mxPoint x="2833" y="1230" as="targetPoint" />
          </mxGeometry>
        </mxCell>
        <mxCell id="eIfRhoeYhjTRWgRVjLV7-117" value="" style="ellipse;whiteSpace=wrap;html=1;strokeColor=#000000;" vertex="1" parent="1">
          <mxGeometry x="3150" y="235" width="410" height="410" as="geometry" />
        </mxCell>
        <mxCell id="eIfRhoeYhjTRWgRVjLV7-118" value="Microbial Check Valve" style="text;whiteSpace=wrap;html=1;fillColor=none;fontSize=50;" vertex="1" parent="1">
          <mxGeometry x="3320" y="365" width="270" height="40" as="geometry" />
        </mxCell>
        <mxCell id="eIfRhoeYhjTRWgRVjLV7-119" value="&lt;font style=&quot;font-size: 10px;&quot;&gt;Aging&lt;/font&gt;" style="ellipse;whiteSpace=wrap;html=1;aspect=fixed;fillColor=#FFFFFF;strokeColor=#F19C99;strokeWidth=2;dashed=1;dashPattern=8 8;" vertex="1" parent="1">
          <mxGeometry x="3290" y="290" width="50" height="50" as="geometry" />
        </mxCell>
        <mxCell id="eIfRhoeYhjTRWgRVjLV7-120" value="" style="endArrow=classic;html=1;rounded=0;" edge="1" parent="1" source="eIfRhoeYhjTRWgRVjLV7-119" target="eIfRhoeYhjTRWgRVjLV7-126">
          <mxGeometry width="50" height="50" relative="1" as="geometry">
            <mxPoint x="3200" y="525" as="sourcePoint" />
            <mxPoint x="3250" y="475" as="targetPoint" />
          </mxGeometry>
        </mxCell>
        <mxCell id="eIfRhoeYhjTRWgRVjLV7-121" value="Wear" style="ellipse;whiteSpace=wrap;html=1;aspect=fixed;fillColor=#FFFFFF;strokeColor=#F19C99;strokeWidth=2;dashed=1;dashPattern=8 8;" vertex="1" parent="1">
          <mxGeometry x="3175" y="355" width="50" height="50" as="geometry" />
        </mxCell>
        <mxCell id="eIfRhoeYhjTRWgRVjLV7-122" value="" style="endArrow=classic;html=1;rounded=0;" edge="1" parent="1" source="eIfRhoeYhjTRWgRVjLV7-121" target="eIfRhoeYhjTRWgRVjLV7-126">
          <mxGeometry width="50" height="50" relative="1" as="geometry">
            <mxPoint x="3208" y="430" as="sourcePoint" />
            <mxPoint x="3253" y="449" as="targetPoint" />
          </mxGeometry>
        </mxCell>
        <mxCell id="eIfRhoeYhjTRWgRVjLV7-123" value="&lt;font style=&quot;font-size: 14px;&quot;&gt;$$F_{disinfect}$$&lt;/font&gt;" style="ellipse;whiteSpace=wrap;html=1;aspect=fixed;fillColor=#A9C4EB;" vertex="1" parent="1">
          <mxGeometry x="3250" y="535" width="80" height="80" as="geometry" />
        </mxCell>
        <mxCell id="eIfRhoeYhjTRWgRVjLV7-124" value="&lt;font style=&quot;font-size: 14px;&quot;&gt;$$H_{depletion}$$&lt;/font&gt;" style="ellipse;whiteSpace=wrap;html=1;aspect=fixed;fillColor=#CCCCCC;" vertex="1" parent="1">
          <mxGeometry x="3200" y="425" width="80" height="80" as="geometry" />
        </mxCell>
        <mxCell id="eIfRhoeYhjTRWgRVjLV7-125" value="" style="endArrow=classic;html=1;rounded=0;" edge="1" parent="1" source="eIfRhoeYhjTRWgRVjLV7-124" target="eIfRhoeYhjTRWgRVjLV7-123">
          <mxGeometry width="50" height="50" relative="1" as="geometry">
            <mxPoint x="3265" y="486" as="sourcePoint" />
            <mxPoint x="3371.726263835347" y="476.220760456981" as="targetPoint" />
          </mxGeometry>
        </mxCell>
        <mxCell id="eIfRhoeYhjTRWgRVjLV7-126" value="" style="ellipse;whiteSpace=wrap;html=1;aspect=fixed;fillColor=#000000;strokeColor=#000000;" vertex="1" parent="1">
          <mxGeometry x="3270" y="385" width="10" height="10" as="geometry" />
        </mxCell>
        <mxCell id="eIfRhoeYhjTRWgRVjLV7-127" value="" style="endArrow=classic;html=1;rounded=0;" edge="1" parent="1" source="eIfRhoeYhjTRWgRVjLV7-126" target="eIfRhoeYhjTRWgRVjLV7-124">
          <mxGeometry width="50" height="50" relative="1" as="geometry">
            <mxPoint x="3267" y="334" as="sourcePoint" />
            <mxPoint x="3247" y="395" as="targetPoint" />
          </mxGeometry>
        </mxCell>
        <mxCell id="eIfRhoeYhjTRWgRVjLV7-128" value="Usage" style="ellipse;whiteSpace=wrap;html=1;aspect=fixed;fillColor=#FFFFFF;strokeColor=#F19C99;strokeWidth=2;dashed=1;dashPattern=8 8;" vertex="1" parent="1">
          <mxGeometry x="3220" y="295" width="50" height="50" as="geometry" />
        </mxCell>
        <mxCell id="eIfRhoeYhjTRWgRVjLV7-129" value="" style="endArrow=classic;html=1;rounded=0;" edge="1" parent="1" source="eIfRhoeYhjTRWgRVjLV7-128" target="eIfRhoeYhjTRWgRVjLV7-126">
          <mxGeometry width="50" height="50" relative="1" as="geometry">
            <mxPoint x="3308" y="343" as="sourcePoint" />
            <mxPoint x="3255" y="380" as="targetPoint" />
          </mxGeometry>
        </mxCell>
        <mxCell id="eIfRhoeYhjTRWgRVjLV7-130" value="" style="endArrow=classic;html=1;rounded=0;" edge="1" parent="1" source="eIfRhoeYhjTRWgRVjLV7-123" target="WJJ-MJG1OjWS8yUtJ8Sh-11">
          <mxGeometry width="50" height="50" relative="1" as="geometry">
            <mxPoint x="3299" y="827" as="sourcePoint" />
            <mxPoint x="3262" y="910" as="targetPoint" />
          </mxGeometry>
        </mxCell>
        <mxCell id="eIfRhoeYhjTRWgRVjLV7-131" value="Pump" style="text;whiteSpace=wrap;html=1;fillColor=none;fontSize=50;" vertex="1" parent="1">
          <mxGeometry x="2627.5" y="240" width="170" height="40" as="geometry" />
        </mxCell>
        <mxCell id="eIfRhoeYhjTRWgRVjLV7-132" value="&lt;font style=&quot;font-size: 25px;&quot;&gt;$$CO_2$$&lt;/font&gt;" style="ellipse;whiteSpace=wrap;html=1;strokeColor=#000000;fontSize=25;" vertex="1" parent="1">
          <mxGeometry x="4170" y="247.5" width="150" height="145" as="geometry" />
        </mxCell>
        <mxCell id="eIfRhoeYhjTRWgRVjLV7-133" value="waste water" style="ellipse;whiteSpace=wrap;html=1;strokeColor=#000000;fontSize=25;" vertex="1" parent="1">
          <mxGeometry x="3070" y="1210" width="150" height="145" as="geometry" />
        </mxCell>
        <mxCell id="eIfRhoeYhjTRWgRVjLV7-134" value="$$H_2O$$" style="ellipse;whiteSpace=wrap;html=1;strokeColor=#000000;fontSize=25;" vertex="1" parent="1">
          <mxGeometry x="3700" y="937.5" width="150" height="145" as="geometry" />
        </mxCell>
        <mxCell id="eIfRhoeYhjTRWgRVjLV7-135" value="dry waste" style="ellipse;whiteSpace=wrap;html=1;strokeColor=#000000;fontSize=25;" vertex="1" parent="1">
          <mxGeometry x="3490" y="1880" width="150" height="145" as="geometry" />
        </mxCell>
        <mxCell id="eIfRhoeYhjTRWgRVjLV7-136" value="wet waste" style="ellipse;whiteSpace=wrap;html=1;strokeColor=#000000;fontSize=25;" vertex="1" parent="1">
          <mxGeometry x="3185.3199999999997" y="1880" width="150" height="145" as="geometry" />
        </mxCell>
        <mxCell id="eIfRhoeYhjTRWgRVjLV7-138" value="$$H_2$$" style="ellipse;whiteSpace=wrap;html=1;strokeColor=#000000;fontSize=25;" vertex="1" parent="1">
          <mxGeometry x="4340" y="478" width="150" height="145" as="geometry" />
        </mxCell>
        <mxCell id="eIfRhoeYhjTRWgRVjLV7-139" value="$$O_2$$" style="ellipse;whiteSpace=wrap;html=1;strokeColor=#000000;fontSize=25;" vertex="1" parent="1">
          <mxGeometry x="4165" y="1222.5" width="150" height="145" as="geometry" />
        </mxCell>
        <mxCell id="eIfRhoeYhjTRWgRVjLV7-157" value="" style="ellipse;whiteSpace=wrap;html=1;strokeColor=#000000;" vertex="1" parent="1">
          <mxGeometry x="2635" y="1415" width="410" height="410" as="geometry" />
        </mxCell>
        <mxCell id="eIfRhoeYhjTRWgRVjLV7-158" value="Urine Processor" style="text;whiteSpace=wrap;html=1;fillColor=none;fontSize=50;" vertex="1" parent="1">
          <mxGeometry x="2735" y="1340" width="270" height="40" as="geometry" />
        </mxCell>
        <mxCell id="eIfRhoeYhjTRWgRVjLV7-159" value="&lt;font style=&quot;font-size: 14px;&quot;&gt;$$F_{process\_urine}$$&lt;/font&gt;" style="ellipse;whiteSpace=wrap;html=1;aspect=fixed;fillColor=#A9C4EB;" vertex="1" parent="1">
          <mxGeometry x="2750" y="1675" width="80" height="80" as="geometry" />
        </mxCell>
        <mxCell id="eIfRhoeYhjTRWgRVjLV7-160" value="&lt;font style=&quot;font-size: 10px;&quot;&gt;Aging&lt;/font&gt;" style="ellipse;whiteSpace=wrap;html=1;aspect=fixed;fillColor=#FFFFFF;strokeColor=#F19C99;strokeWidth=2;dashed=1;dashPattern=8 8;" vertex="1" parent="1">
          <mxGeometry x="2660" y="1545" width="50" height="50" as="geometry" />
        </mxCell>
        <mxCell id="eIfRhoeYhjTRWgRVjLV7-161" value="&lt;font style=&quot;font-size: 14px;&quot;&gt;$$V_{power}$$&lt;/font&gt;" style="ellipse;whiteSpace=wrap;html=1;aspect=fixed;fillColor=#FFFFFF;strokeColor=#080505;strokeWidth=1;" vertex="1" parent="1">
          <mxGeometry x="2840" y="1465" width="80" height="80" as="geometry" />
        </mxCell>
        <mxCell id="eIfRhoeYhjTRWgRVjLV7-162" value="&lt;font style=&quot;font-size: 14px;&quot;&gt;$$H_{mechanism}$$&lt;/font&gt;" style="ellipse;whiteSpace=wrap;html=1;aspect=fixed;fillColor=#CCCCCC;" vertex="1" parent="1">
          <mxGeometry x="2730" y="1555" width="80" height="80" as="geometry" />
        </mxCell>
        <mxCell id="eIfRhoeYhjTRWgRVjLV7-163" value="&lt;font style=&quot;font-size: 14px;&quot;&gt;$$F_{output\_waste\_water}$$&lt;/font&gt;" style="ellipse;whiteSpace=wrap;html=1;aspect=fixed;fillColor=#A9C4EB;" vertex="1" parent="1">
          <mxGeometry x="2930" y="1562.5" width="80" height="80" as="geometry" />
        </mxCell>
        <mxCell id="eIfRhoeYhjTRWgRVjLV7-164" value="" style="endArrow=classic;html=1;rounded=0;" edge="1" parent="1" source="eIfRhoeYhjTRWgRVjLV7-160" target="eIfRhoeYhjTRWgRVjLV7-162">
          <mxGeometry width="50" height="50" relative="1" as="geometry">
            <mxPoint x="2710" y="1685" as="sourcePoint" />
            <mxPoint x="2760" y="1635" as="targetPoint" />
          </mxGeometry>
        </mxCell>
        <mxCell id="eIfRhoeYhjTRWgRVjLV7-165" value="" style="ellipse;whiteSpace=wrap;html=1;aspect=fixed;fillColor=#000000;strokeColor=#000000;" vertex="1" parent="1">
          <mxGeometry x="2865" y="1635" width="10" height="10" as="geometry" />
        </mxCell>
        <mxCell id="eIfRhoeYhjTRWgRVjLV7-166" value="" style="endArrow=classic;html=1;rounded=0;" edge="1" parent="1" source="eIfRhoeYhjTRWgRVjLV7-162" target="eIfRhoeYhjTRWgRVjLV7-165">
          <mxGeometry width="50" height="50" relative="1" as="geometry">
            <mxPoint x="2875" y="1610.5" as="sourcePoint" />
            <mxPoint x="2920" y="1629.5" as="targetPoint" />
          </mxGeometry>
        </mxCell>
        <mxCell id="eIfRhoeYhjTRWgRVjLV7-167" value="" style="endArrow=classic;html=1;rounded=0;" edge="1" parent="1" source="eIfRhoeYhjTRWgRVjLV7-161" target="eIfRhoeYhjTRWgRVjLV7-165">
          <mxGeometry width="50" height="50" relative="1" as="geometry">
            <mxPoint x="2890" y="1595" as="sourcePoint" />
            <mxPoint x="2935" y="1614" as="targetPoint" />
          </mxGeometry>
        </mxCell>
        <mxCell id="eIfRhoeYhjTRWgRVjLV7-168" value="" style="endArrow=classic;html=1;rounded=0;" edge="1" parent="1" source="eIfRhoeYhjTRWgRVjLV7-165" target="eIfRhoeYhjTRWgRVjLV7-163">
          <mxGeometry width="50" height="50" relative="1" as="geometry">
            <mxPoint x="2890" y="1681" as="sourcePoint" />
            <mxPoint x="2941" y="1695" as="targetPoint" />
          </mxGeometry>
        </mxCell>
        <mxCell id="eIfRhoeYhjTRWgRVjLV7-169" value="" style="endArrow=classic;html=1;rounded=0;" edge="1" parent="1" source="eIfRhoeYhjTRWgRVjLV7-165" target="eIfRhoeYhjTRWgRVjLV7-159">
          <mxGeometry width="50" height="50" relative="1" as="geometry">
            <mxPoint x="2849" y="1645" as="sourcePoint" />
            <mxPoint x="2900" y="1659" as="targetPoint" />
          </mxGeometry>
        </mxCell>
        <mxCell id="eIfRhoeYhjTRWgRVjLV7-170" value="Wear" style="ellipse;whiteSpace=wrap;html=1;aspect=fixed;fillColor=#FFFFFF;strokeColor=#F19C99;strokeWidth=2;dashed=1;dashPattern=8 8;" vertex="1" parent="1">
          <mxGeometry x="2715" y="1480" width="50" height="50" as="geometry" />
        </mxCell>
        <mxCell id="eIfRhoeYhjTRWgRVjLV7-171" value="" style="endArrow=classic;html=1;rounded=0;" edge="1" parent="1" source="eIfRhoeYhjTRWgRVjLV7-170" target="eIfRhoeYhjTRWgRVjLV7-162">
          <mxGeometry width="50" height="50" relative="1" as="geometry">
            <mxPoint x="2718" y="1590" as="sourcePoint" />
            <mxPoint x="2763" y="1609" as="targetPoint" />
          </mxGeometry>
        </mxCell>
        <mxCell id="eIfRhoeYhjTRWgRVjLV7-172" value="&lt;font style=&quot;font-size: 14px;&quot;&gt;$$F_{output\_brine}$$&lt;/font&gt;" style="ellipse;whiteSpace=wrap;html=1;aspect=fixed;fillColor=#A9C4EB;" vertex="1" parent="1">
          <mxGeometry x="2885" y="1675" width="80" height="80" as="geometry" />
        </mxCell>
        <mxCell id="eIfRhoeYhjTRWgRVjLV7-173" value="" style="endArrow=classic;html=1;rounded=0;" edge="1" parent="1" source="eIfRhoeYhjTRWgRVjLV7-165" target="eIfRhoeYhjTRWgRVjLV7-172">
          <mxGeometry width="50" height="50" relative="1" as="geometry">
            <mxPoint x="2880" y="1655" as="sourcePoint" />
            <mxPoint x="2850" y="1728" as="targetPoint" />
          </mxGeometry>
        </mxCell>
        <mxCell id="eIfRhoeYhjTRWgRVjLV7-174" value="" style="ellipse;whiteSpace=wrap;html=1;strokeColor=#000000;" vertex="1" parent="1">
          <mxGeometry x="3280" y="1412.5" width="410" height="410" as="geometry" />
        </mxCell>
        <mxCell id="eIfRhoeYhjTRWgRVjLV7-175" value="Lyophilizer" style="text;whiteSpace=wrap;html=1;fillColor=none;fontSize=50;" vertex="1" parent="1">
          <mxGeometry x="3370" y="1367.5" width="270" height="40" as="geometry" />
        </mxCell>
        <mxCell id="eIfRhoeYhjTRWgRVjLV7-176" value="&lt;font style=&quot;font-size: 14px;&quot;&gt;$$F_{process\_brine}$$&lt;/font&gt;" style="ellipse;whiteSpace=wrap;html=1;aspect=fixed;fillColor=#A9C4EB;" vertex="1" parent="1">
          <mxGeometry x="3345" y="1612.5" width="80" height="80" as="geometry" />
        </mxCell>
        <mxCell id="eIfRhoeYhjTRWgRVjLV7-177" value="&lt;font style=&quot;font-size: 10px;&quot;&gt;Aging&lt;/font&gt;" style="ellipse;whiteSpace=wrap;html=1;aspect=fixed;fillColor=#FFFFFF;strokeColor=#F19C99;strokeWidth=2;dashed=1;dashPattern=8 8;" vertex="1" parent="1">
          <mxGeometry x="3560" y="1470" width="50" height="50" as="geometry" />
        </mxCell>
        <mxCell id="eIfRhoeYhjTRWgRVjLV7-178" value="&lt;font style=&quot;font-size: 14px;&quot;&gt;$$V_{power}$$&lt;/font&gt;" style="ellipse;whiteSpace=wrap;html=1;aspect=fixed;fillColor=#FFFFFF;strokeColor=#080505;strokeWidth=1;" vertex="1" parent="1">
          <mxGeometry x="3582.5" y="1612.5" width="80" height="80" as="geometry" />
        </mxCell>
        <mxCell id="eIfRhoeYhjTRWgRVjLV7-179" value="&lt;font style=&quot;font-size: 14px;&quot;&gt;$$H_{mechanism}$$&lt;/font&gt;" style="ellipse;whiteSpace=wrap;html=1;aspect=fixed;fillColor=#CCCCCC;" vertex="1" parent="1">
          <mxGeometry x="3515" y="1540" width="80" height="80" as="geometry" />
        </mxCell>
        <mxCell id="eIfRhoeYhjTRWgRVjLV7-180" value="&lt;font style=&quot;font-size: 14px;&quot;&gt;$$F_{output\_waste\_water}$$&lt;/font&gt;" style="ellipse;whiteSpace=wrap;html=1;aspect=fixed;fillColor=#A9C4EB;" vertex="1" parent="1">
          <mxGeometry x="3360" y="1490" width="80" height="80" as="geometry" />
        </mxCell>
        <mxCell id="eIfRhoeYhjTRWgRVjLV7-181" value="" style="endArrow=classic;html=1;rounded=0;" edge="1" parent="1" source="eIfRhoeYhjTRWgRVjLV7-177" target="eIfRhoeYhjTRWgRVjLV7-179">
          <mxGeometry width="50" height="50" relative="1" as="geometry">
            <mxPoint x="3355" y="1682.5" as="sourcePoint" />
            <mxPoint x="3405" y="1632.5" as="targetPoint" />
          </mxGeometry>
        </mxCell>
        <mxCell id="eIfRhoeYhjTRWgRVjLV7-182" value="" style="ellipse;whiteSpace=wrap;html=1;aspect=fixed;fillColor=#000000;strokeColor=#000000;" vertex="1" parent="1">
          <mxGeometry x="3510" y="1632.5" width="10" height="10" as="geometry" />
        </mxCell>
        <mxCell id="eIfRhoeYhjTRWgRVjLV7-183" value="" style="endArrow=classic;html=1;rounded=0;" edge="1" parent="1" source="eIfRhoeYhjTRWgRVjLV7-179" target="eIfRhoeYhjTRWgRVjLV7-182">
          <mxGeometry width="50" height="50" relative="1" as="geometry">
            <mxPoint x="3520" y="1608" as="sourcePoint" />
            <mxPoint x="3565" y="1627" as="targetPoint" />
          </mxGeometry>
        </mxCell>
        <mxCell id="eIfRhoeYhjTRWgRVjLV7-184" value="" style="endArrow=classic;html=1;rounded=0;" edge="1" parent="1" source="eIfRhoeYhjTRWgRVjLV7-178" target="eIfRhoeYhjTRWgRVjLV7-182">
          <mxGeometry width="50" height="50" relative="1" as="geometry">
            <mxPoint x="3535" y="1592.5" as="sourcePoint" />
            <mxPoint x="3580" y="1611.5" as="targetPoint" />
          </mxGeometry>
        </mxCell>
        <mxCell id="eIfRhoeYhjTRWgRVjLV7-185" value="" style="endArrow=classic;html=1;rounded=0;" edge="1" parent="1" source="eIfRhoeYhjTRWgRVjLV7-182" target="eIfRhoeYhjTRWgRVjLV7-180">
          <mxGeometry width="50" height="50" relative="1" as="geometry">
            <mxPoint x="3535" y="1678.5" as="sourcePoint" />
            <mxPoint x="3586" y="1692.5" as="targetPoint" />
          </mxGeometry>
        </mxCell>
        <mxCell id="eIfRhoeYhjTRWgRVjLV7-186" value="" style="endArrow=classic;html=1;rounded=0;" edge="1" parent="1" source="eIfRhoeYhjTRWgRVjLV7-182" target="eIfRhoeYhjTRWgRVjLV7-176">
          <mxGeometry width="50" height="50" relative="1" as="geometry">
            <mxPoint x="3494" y="1642.5" as="sourcePoint" />
            <mxPoint x="3545" y="1656.5" as="targetPoint" />
          </mxGeometry>
        </mxCell>
        <mxCell id="eIfRhoeYhjTRWgRVjLV7-187" value="Wear" style="ellipse;whiteSpace=wrap;html=1;aspect=fixed;fillColor=#FFFFFF;strokeColor=#F19C99;strokeWidth=2;dashed=1;dashPattern=8 8;" vertex="1" parent="1">
          <mxGeometry x="3610" y="1520" width="50" height="50" as="geometry" />
        </mxCell>
        <mxCell id="eIfRhoeYhjTRWgRVjLV7-188" value="" style="endArrow=classic;html=1;rounded=0;" edge="1" parent="1" source="eIfRhoeYhjTRWgRVjLV7-187" target="eIfRhoeYhjTRWgRVjLV7-179">
          <mxGeometry width="50" height="50" relative="1" as="geometry">
            <mxPoint x="3363" y="1587.5" as="sourcePoint" />
            <mxPoint x="3408" y="1606.5" as="targetPoint" />
          </mxGeometry>
        </mxCell>
        <mxCell id="eIfRhoeYhjTRWgRVjLV7-189" value="&lt;font style=&quot;font-size: 14px;&quot;&gt;$$F_{output\_dry\_waste}$$&lt;/font&gt;" style="ellipse;whiteSpace=wrap;html=1;aspect=fixed;fillColor=#A9C4EB;" vertex="1" parent="1">
          <mxGeometry x="3502.5" y="1712.5" width="80" height="80" as="geometry" />
        </mxCell>
        <mxCell id="eIfRhoeYhjTRWgRVjLV7-190" value="" style="endArrow=classic;html=1;rounded=0;" edge="1" parent="1" source="eIfRhoeYhjTRWgRVjLV7-182" target="eIfRhoeYhjTRWgRVjLV7-189">
          <mxGeometry width="50" height="50" relative="1" as="geometry">
            <mxPoint x="3525" y="1652.5" as="sourcePoint" />
            <mxPoint x="3495" y="1725.5" as="targetPoint" />
          </mxGeometry>
        </mxCell>
        <mxCell id="eIfRhoeYhjTRWgRVjLV7-191" value="&lt;font style=&quot;font-size: 14px;&quot;&gt;$$F_{process\_wet\_waste}$$&lt;/font&gt;" style="ellipse;whiteSpace=wrap;html=1;aspect=fixed;fillColor=#A9C4EB;" vertex="1" parent="1">
          <mxGeometry x="3395" y="1702.5" width="80" height="80" as="geometry" />
        </mxCell>
        <mxCell id="eIfRhoeYhjTRWgRVjLV7-192" value="" style="endArrow=classic;html=1;rounded=0;" edge="1" parent="1" source="eIfRhoeYhjTRWgRVjLV7-182" target="eIfRhoeYhjTRWgRVjLV7-191">
          <mxGeometry width="50" height="50" relative="1" as="geometry">
            <mxPoint x="3527" y="1652.5" as="sourcePoint" />
            <mxPoint x="3554" y="1715.5" as="targetPoint" />
          </mxGeometry>
        </mxCell>
        <mxCell id="eIfRhoeYhjTRWgRVjLV7-193" value="brine" style="ellipse;whiteSpace=wrap;html=1;strokeColor=#000000;fontSize=25;" vertex="1" parent="1">
          <mxGeometry x="3090" y="1637.5" width="150" height="145" as="geometry" />
        </mxCell>
        <mxCell id="eIfRhoeYhjTRWgRVjLV7-194" value="urine" style="ellipse;whiteSpace=wrap;html=1;strokeColor=#000000;fontSize=25;" vertex="1" parent="1">
          <mxGeometry x="2290" y="1630" width="150" height="145" as="geometry" />
        </mxCell>
        <mxCell id="eIfRhoeYhjTRWgRVjLV7-196" value="" style="endArrow=classic;html=1;rounded=0;" edge="1" parent="1" source="eIfRhoeYhjTRWgRVjLV7-194" target="eIfRhoeYhjTRWgRVjLV7-159">
          <mxGeometry width="50" height="50" relative="1" as="geometry">
            <mxPoint x="2590" y="1730" as="sourcePoint" />
            <mxPoint x="2829" y="1698" as="targetPoint" />
          </mxGeometry>
        </mxCell>
        <mxCell id="eIfRhoeYhjTRWgRVjLV7-197" value="" style="endArrow=classic;html=1;rounded=0;" edge="1" parent="1" source="eIfRhoeYhjTRWgRVjLV7-172" target="eIfRhoeYhjTRWgRVjLV7-193">
          <mxGeometry width="50" height="50" relative="1" as="geometry">
            <mxPoint x="2450" y="1715" as="sourcePoint" />
            <mxPoint x="2760" y="1724" as="targetPoint" />
          </mxGeometry>
        </mxCell>
        <mxCell id="eIfRhoeYhjTRWgRVjLV7-198" value="" style="endArrow=classic;html=1;rounded=0;" edge="1" parent="1" source="eIfRhoeYhjTRWgRVjLV7-193" target="eIfRhoeYhjTRWgRVjLV7-176">
          <mxGeometry width="50" height="50" relative="1" as="geometry">
            <mxPoint x="3265" y="1763" as="sourcePoint" />
            <mxPoint x="3390" y="1760" as="targetPoint" />
          </mxGeometry>
        </mxCell>
        <mxCell id="eIfRhoeYhjTRWgRVjLV7-199" value="" style="endArrow=classic;html=1;rounded=0;" edge="1" parent="1" source="eIfRhoeYhjTRWgRVjLV7-136" target="eIfRhoeYhjTRWgRVjLV7-191">
          <mxGeometry width="50" height="50" relative="1" as="geometry">
            <mxPoint x="3247" y="1701" as="sourcePoint" />
            <mxPoint x="3356" y="1673" as="targetPoint" />
          </mxGeometry>
        </mxCell>
        <mxCell id="eIfRhoeYhjTRWgRVjLV7-200" value="" style="endArrow=classic;html=1;rounded=0;" edge="1" parent="1" source="eIfRhoeYhjTRWgRVjLV7-189" target="eIfRhoeYhjTRWgRVjLV7-135">
          <mxGeometry width="50" height="50" relative="1" as="geometry">
            <mxPoint x="3790" y="1830" as="sourcePoint" />
            <mxPoint x="3419" y="1783" as="targetPoint" />
          </mxGeometry>
        </mxCell>
        <mxCell id="eIfRhoeYhjTRWgRVjLV7-203" value="" style="endArrow=classic;html=1;rounded=0;" edge="1" parent="1" source="eIfRhoeYhjTRWgRVjLV7-180" target="eIfRhoeYhjTRWgRVjLV7-133">
          <mxGeometry width="50" height="50" relative="1" as="geometry">
            <mxPoint x="3410" y="1530" as="sourcePoint" />
            <mxPoint x="3439" y="1567" as="targetPoint" />
          </mxGeometry>
        </mxCell>
        <mxCell id="eIfRhoeYhjTRWgRVjLV7-204" value="" style="endArrow=classic;html=1;rounded=0;" edge="1" parent="1" source="eIfRhoeYhjTRWgRVjLV7-163" target="eIfRhoeYhjTRWgRVjLV7-133">
          <mxGeometry width="50" height="50" relative="1" as="geometry">
            <mxPoint x="3381" y="1512" as="sourcePoint" />
            <mxPoint x="3208" y="1344" as="targetPoint" />
          </mxGeometry>
        </mxCell>
        <mxCell id="eIfRhoeYhjTRWgRVjLV7-205" value="" style="endArrow=classic;html=1;rounded=0;" edge="1" parent="1" source="eIfRhoeYhjTRWgRVjLV7-133" target="LNBtL-OUFiTYOPxDa9G3-3">
          <mxGeometry width="50" height="50" relative="1" as="geometry">
            <mxPoint x="3381" y="1512" as="sourcePoint" />
            <mxPoint x="3208" y="1344" as="targetPoint" />
          </mxGeometry>
        </mxCell>
        <mxCell id="eIfRhoeYhjTRWgRVjLV7-206" value="" style="endArrow=classic;html=1;rounded=0;" edge="1" parent="1" source="LNBtL-OUFiTYOPxDa9G3-13" target="eIfRhoeYhjTRWgRVjLV7-134">
          <mxGeometry width="50" height="50" relative="1" as="geometry">
            <mxPoint x="3170" y="1221" as="sourcePoint" />
            <mxPoint x="3202" y="1069" as="targetPoint" />
          </mxGeometry>
        </mxCell>
        <mxCell id="eIfRhoeYhjTRWgRVjLV7-207" value="air" style="ellipse;whiteSpace=wrap;html=1;strokeColor=#000000;fontSize=25;" vertex="1" parent="1">
          <mxGeometry x="4620" y="-220" width="150" height="145" as="geometry" />
        </mxCell>
        <mxCell id="eIfRhoeYhjTRWgRVjLV7-208" value="" style="ellipse;whiteSpace=wrap;html=1;strokeColor=#000000;" vertex="1" parent="1">
          <mxGeometry x="4270" y="717.5" width="410" height="410" as="geometry" />
        </mxCell>
        <mxCell id="eIfRhoeYhjTRWgRVjLV7-209" value="Oxygen Generator" style="text;whiteSpace=wrap;html=1;fillColor=none;fontSize=50;" vertex="1" parent="1">
          <mxGeometry x="4350" y="632.5" width="270" height="40" as="geometry" />
        </mxCell>
        <mxCell id="eIfRhoeYhjTRWgRVjLV7-210" value="&lt;font style=&quot;font-size: 14px;&quot;&gt;$$F_{generate\_O_2}$$&lt;/font&gt;" style="ellipse;whiteSpace=wrap;html=1;aspect=fixed;fillColor=#A9C4EB;" vertex="1" parent="1">
          <mxGeometry x="4385" y="997.5" width="80" height="80" as="geometry" />
        </mxCell>
        <mxCell id="eIfRhoeYhjTRWgRVjLV7-211" value="&lt;font style=&quot;font-size: 10px;&quot;&gt;Aging&lt;/font&gt;" style="ellipse;whiteSpace=wrap;html=1;aspect=fixed;fillColor=#FFFFFF;strokeColor=#F19C99;strokeWidth=2;dashed=1;dashPattern=8 8;" vertex="1" parent="1">
          <mxGeometry x="4620" y="940" width="50" height="50" as="geometry" />
        </mxCell>
        <mxCell id="eIfRhoeYhjTRWgRVjLV7-212" value="&lt;font style=&quot;font-size: 14px;&quot;&gt;$$V_{power}$$&lt;/font&gt;" style="ellipse;whiteSpace=wrap;html=1;aspect=fixed;fillColor=#FFFFFF;strokeColor=#080505;strokeWidth=1;" vertex="1" parent="1">
          <mxGeometry x="4530" y="772.5" width="80" height="80" as="geometry" />
        </mxCell>
        <mxCell id="eIfRhoeYhjTRWgRVjLV7-213" value="&lt;font style=&quot;font-size: 14px;&quot;&gt;$$H_{mechanism}$$&lt;/font&gt;" style="ellipse;whiteSpace=wrap;html=1;aspect=fixed;fillColor=#CCCCCC;" vertex="1" parent="1">
          <mxGeometry x="4520" y="937.5" width="80" height="80" as="geometry" />
        </mxCell>
        <mxCell id="eIfRhoeYhjTRWgRVjLV7-214" value="&lt;font style=&quot;font-size: 14px;&quot;&gt;$$F_{generate\_H_2}$$&lt;/font&gt;" style="ellipse;whiteSpace=wrap;html=1;aspect=fixed;fillColor=#A9C4EB;" vertex="1" parent="1">
          <mxGeometry x="4380" y="820" width="80" height="80" as="geometry" />
        </mxCell>
        <mxCell id="eIfRhoeYhjTRWgRVjLV7-215" value="&lt;font style=&quot;font-size: 14px;&quot;&gt;$$V_{H_2O}$$&lt;/font&gt;" style="ellipse;whiteSpace=wrap;html=1;aspect=fixed;fillColor=#FFFFFF;strokeColor=#080505;strokeWidth=1;" vertex="1" parent="1">
          <mxGeometry x="4310" y="910" width="80" height="80" as="geometry" />
        </mxCell>
        <mxCell id="eIfRhoeYhjTRWgRVjLV7-216" value="" style="endArrow=classic;html=1;rounded=0;" edge="1" parent="1" source="eIfRhoeYhjTRWgRVjLV7-211" target="eIfRhoeYhjTRWgRVjLV7-213">
          <mxGeometry width="50" height="50" relative="1" as="geometry">
            <mxPoint x="4345" y="987.5" as="sourcePoint" />
            <mxPoint x="4395" y="937.5" as="targetPoint" />
          </mxGeometry>
        </mxCell>
        <mxCell id="eIfRhoeYhjTRWgRVjLV7-217" value="" style="ellipse;whiteSpace=wrap;html=1;aspect=fixed;fillColor=#000000;strokeColor=#000000;" vertex="1" parent="1">
          <mxGeometry x="4480" y="940" width="10" height="10" as="geometry" />
        </mxCell>
        <mxCell id="eIfRhoeYhjTRWgRVjLV7-218" value="" style="endArrow=classic;html=1;rounded=0;" edge="1" parent="1" source="eIfRhoeYhjTRWgRVjLV7-213" target="eIfRhoeYhjTRWgRVjLV7-217">
          <mxGeometry width="50" height="50" relative="1" as="geometry">
            <mxPoint x="4510" y="913" as="sourcePoint" />
            <mxPoint x="4555" y="932" as="targetPoint" />
          </mxGeometry>
        </mxCell>
        <mxCell id="eIfRhoeYhjTRWgRVjLV7-219" value="" style="endArrow=classic;html=1;rounded=0;" edge="1" parent="1" source="eIfRhoeYhjTRWgRVjLV7-212" target="eIfRhoeYhjTRWgRVjLV7-217">
          <mxGeometry width="50" height="50" relative="1" as="geometry">
            <mxPoint x="4525" y="897.5" as="sourcePoint" />
            <mxPoint x="4570" y="916.5" as="targetPoint" />
          </mxGeometry>
        </mxCell>
        <mxCell id="eIfRhoeYhjTRWgRVjLV7-220" value="" style="endArrow=classic;html=1;rounded=0;" edge="1" parent="1" source="eIfRhoeYhjTRWgRVjLV7-215" target="eIfRhoeYhjTRWgRVjLV7-217">
          <mxGeometry width="50" height="50" relative="1" as="geometry">
            <mxPoint x="4373" y="912.5" as="sourcePoint" />
            <mxPoint x="4418" y="931.5" as="targetPoint" />
          </mxGeometry>
        </mxCell>
        <mxCell id="eIfRhoeYhjTRWgRVjLV7-221" value="" style="endArrow=classic;html=1;rounded=0;" edge="1" parent="1" source="eIfRhoeYhjTRWgRVjLV7-217" target="eIfRhoeYhjTRWgRVjLV7-214">
          <mxGeometry width="50" height="50" relative="1" as="geometry">
            <mxPoint x="4525" y="983.5" as="sourcePoint" />
            <mxPoint x="4576" y="997.5" as="targetPoint" />
          </mxGeometry>
        </mxCell>
        <mxCell id="eIfRhoeYhjTRWgRVjLV7-222" value="" style="endArrow=classic;html=1;rounded=0;" edge="1" parent="1" source="eIfRhoeYhjTRWgRVjLV7-217" target="eIfRhoeYhjTRWgRVjLV7-210">
          <mxGeometry width="50" height="50" relative="1" as="geometry">
            <mxPoint x="4484" y="947.5" as="sourcePoint" />
            <mxPoint x="4535" y="961.5" as="targetPoint" />
          </mxGeometry>
        </mxCell>
        <mxCell id="eIfRhoeYhjTRWgRVjLV7-223" value="Wear" style="ellipse;whiteSpace=wrap;html=1;aspect=fixed;fillColor=#FFFFFF;strokeColor=#F19C99;strokeWidth=2;dashed=1;dashPattern=8 8;" vertex="1" parent="1">
          <mxGeometry x="4470" y="1027.5" width="50" height="50" as="geometry" />
        </mxCell>
        <mxCell id="eIfRhoeYhjTRWgRVjLV7-224" value="" style="endArrow=classic;html=1;rounded=0;" edge="1" parent="1" source="eIfRhoeYhjTRWgRVjLV7-223" target="eIfRhoeYhjTRWgRVjLV7-213">
          <mxGeometry width="50" height="50" relative="1" as="geometry">
            <mxPoint x="4353" y="892.5" as="sourcePoint" />
            <mxPoint x="4398" y="911.5" as="targetPoint" />
          </mxGeometry>
        </mxCell>
        <mxCell id="eIfRhoeYhjTRWgRVjLV7-227" value="" style="ellipse;whiteSpace=wrap;html=1;strokeColor=#000000;" vertex="1" parent="1">
          <mxGeometry x="3830" y="330" width="410" height="410" as="geometry" />
        </mxCell>
        <mxCell id="eIfRhoeYhjTRWgRVjLV7-228" value="Sabatier Reactor" style="text;whiteSpace=wrap;html=1;fillColor=none;fontSize=50;" vertex="1" parent="1">
          <mxGeometry x="3730" y="240" width="270" height="40" as="geometry" />
        </mxCell>
        <mxCell id="eIfRhoeYhjTRWgRVjLV7-229" value="&lt;font style=&quot;font-size: 14px;&quot;&gt;$$F_{generate\_H_2O}$$&lt;/font&gt;" style="ellipse;whiteSpace=wrap;html=1;aspect=fixed;fillColor=#A9C4EB;" vertex="1" parent="1">
          <mxGeometry x="3945" y="605" width="80" height="80" as="geometry" />
        </mxCell>
        <mxCell id="eIfRhoeYhjTRWgRVjLV7-230" value="&lt;font style=&quot;font-size: 10px;&quot;&gt;Aging&lt;/font&gt;" style="ellipse;whiteSpace=wrap;html=1;aspect=fixed;fillColor=#FFFFFF;strokeColor=#F19C99;strokeWidth=2;dashed=1;dashPattern=8 8;" vertex="1" parent="1">
          <mxGeometry x="3855" y="460" width="50" height="50" as="geometry" />
        </mxCell>
        <mxCell id="eIfRhoeYhjTRWgRVjLV7-231" value="&lt;font style=&quot;font-size: 14px;&quot;&gt;$$V_{power}$$&lt;/font&gt;" style="ellipse;whiteSpace=wrap;html=1;aspect=fixed;fillColor=#FFFFFF;strokeColor=#080505;strokeWidth=1;" vertex="1" parent="1">
          <mxGeometry x="4015" y="410" width="80" height="80" as="geometry" />
        </mxCell>
        <mxCell id="eIfRhoeYhjTRWgRVjLV7-232" value="&lt;font style=&quot;font-size: 14px;&quot;&gt;$$H_{mechanism}$$&lt;/font&gt;" style="ellipse;whiteSpace=wrap;html=1;aspect=fixed;fillColor=#CCCCCC;" vertex="1" parent="1">
          <mxGeometry x="3945" y="490" width="80" height="80" as="geometry" />
        </mxCell>
        <mxCell id="eIfRhoeYhjTRWgRVjLV7-233" value="&lt;font style=&quot;font-size: 14px;&quot;&gt;$$F_{generate\_CH_4}$$&lt;/font&gt;" style="ellipse;whiteSpace=wrap;html=1;aspect=fixed;fillColor=#A9C4EB;" vertex="1" parent="1">
          <mxGeometry x="4055" y="615" width="90" height="90" as="geometry" />
        </mxCell>
        <mxCell id="eIfRhoeYhjTRWgRVjLV7-234" value="&lt;font style=&quot;font-size: 14px;&quot;&gt;$$V_{H_2}$$&lt;/font&gt;" style="ellipse;whiteSpace=wrap;html=1;aspect=fixed;fillColor=#FFFFFF;strokeColor=#080505;strokeWidth=1;" vertex="1" parent="1">
          <mxGeometry x="4150" y="517.5" width="80" height="80" as="geometry" />
        </mxCell>
        <mxCell id="eIfRhoeYhjTRWgRVjLV7-235" value="" style="endArrow=classic;html=1;rounded=0;" edge="1" parent="1" source="eIfRhoeYhjTRWgRVjLV7-230" target="eIfRhoeYhjTRWgRVjLV7-232">
          <mxGeometry width="50" height="50" relative="1" as="geometry">
            <mxPoint x="3905" y="600" as="sourcePoint" />
            <mxPoint x="3955" y="550" as="targetPoint" />
          </mxGeometry>
        </mxCell>
        <mxCell id="eIfRhoeYhjTRWgRVjLV7-236" value="" style="ellipse;whiteSpace=wrap;html=1;aspect=fixed;fillColor=#000000;strokeColor=#000000;" vertex="1" parent="1">
          <mxGeometry x="4075" y="550" width="10" height="10" as="geometry" />
        </mxCell>
        <mxCell id="eIfRhoeYhjTRWgRVjLV7-237" value="" style="endArrow=classic;html=1;rounded=0;" edge="1" parent="1" source="eIfRhoeYhjTRWgRVjLV7-232" target="eIfRhoeYhjTRWgRVjLV7-236">
          <mxGeometry width="50" height="50" relative="1" as="geometry">
            <mxPoint x="4070" y="525.5" as="sourcePoint" />
            <mxPoint x="4115" y="544.5" as="targetPoint" />
          </mxGeometry>
        </mxCell>
        <mxCell id="eIfRhoeYhjTRWgRVjLV7-238" value="" style="endArrow=classic;html=1;rounded=0;" edge="1" parent="1" source="eIfRhoeYhjTRWgRVjLV7-231" target="eIfRhoeYhjTRWgRVjLV7-236">
          <mxGeometry width="50" height="50" relative="1" as="geometry">
            <mxPoint x="4085" y="510" as="sourcePoint" />
            <mxPoint x="4130" y="529" as="targetPoint" />
          </mxGeometry>
        </mxCell>
        <mxCell id="eIfRhoeYhjTRWgRVjLV7-239" value="" style="endArrow=classic;html=1;rounded=0;" edge="1" parent="1" source="eIfRhoeYhjTRWgRVjLV7-234" target="eIfRhoeYhjTRWgRVjLV7-236">
          <mxGeometry width="50" height="50" relative="1" as="geometry">
            <mxPoint x="3933" y="525" as="sourcePoint" />
            <mxPoint x="3978" y="544" as="targetPoint" />
          </mxGeometry>
        </mxCell>
        <mxCell id="eIfRhoeYhjTRWgRVjLV7-240" value="" style="endArrow=classic;html=1;rounded=0;" edge="1" parent="1" source="eIfRhoeYhjTRWgRVjLV7-236" target="eIfRhoeYhjTRWgRVjLV7-233">
          <mxGeometry width="50" height="50" relative="1" as="geometry">
            <mxPoint x="4085" y="596" as="sourcePoint" />
            <mxPoint x="4136" y="610" as="targetPoint" />
          </mxGeometry>
        </mxCell>
        <mxCell id="eIfRhoeYhjTRWgRVjLV7-241" value="" style="endArrow=classic;html=1;rounded=0;" edge="1" parent="1" source="eIfRhoeYhjTRWgRVjLV7-236" target="eIfRhoeYhjTRWgRVjLV7-229">
          <mxGeometry width="50" height="50" relative="1" as="geometry">
            <mxPoint x="4044" y="560" as="sourcePoint" />
            <mxPoint x="4095" y="574" as="targetPoint" />
          </mxGeometry>
        </mxCell>
        <mxCell id="eIfRhoeYhjTRWgRVjLV7-242" value="Wear" style="ellipse;whiteSpace=wrap;html=1;aspect=fixed;fillColor=#FFFFFF;strokeColor=#F19C99;strokeWidth=2;dashed=1;dashPattern=8 8;" vertex="1" parent="1">
          <mxGeometry x="3910" y="395" width="50" height="50" as="geometry" />
        </mxCell>
        <mxCell id="eIfRhoeYhjTRWgRVjLV7-243" value="" style="endArrow=classic;html=1;rounded=0;" edge="1" parent="1" source="eIfRhoeYhjTRWgRVjLV7-242" target="eIfRhoeYhjTRWgRVjLV7-232">
          <mxGeometry width="50" height="50" relative="1" as="geometry">
            <mxPoint x="3913" y="505" as="sourcePoint" />
            <mxPoint x="3958" y="524" as="targetPoint" />
          </mxGeometry>
        </mxCell>
        <mxCell id="eIfRhoeYhjTRWgRVjLV7-244" value="&lt;font style=&quot;font-size: 14px;&quot;&gt;$$V_{CO_2}$$&lt;/font&gt;" style="ellipse;whiteSpace=wrap;html=1;aspect=fixed;fillColor=#FFFFFF;strokeColor=#080505;strokeWidth=1;" vertex="1" parent="1">
          <mxGeometry x="4110" y="430" width="80" height="80" as="geometry" />
        </mxCell>
        <mxCell id="eIfRhoeYhjTRWgRVjLV7-245" value="" style="endArrow=classic;html=1;rounded=0;" edge="1" parent="1" source="eIfRhoeYhjTRWgRVjLV7-244" target="eIfRhoeYhjTRWgRVjLV7-236">
          <mxGeometry width="50" height="50" relative="1" as="geometry">
            <mxPoint x="4136" y="522" as="sourcePoint" />
            <mxPoint x="4094" y="562" as="targetPoint" />
          </mxGeometry>
        </mxCell>
        <mxCell id="eIfRhoeYhjTRWgRVjLV7-247" value="" style="endArrow=classic;html=1;rounded=0;" edge="1" parent="1" source="eIfRhoeYhjTRWgRVjLV7-207" target="eIfRhoeYhjTRWgRVjLV7-43">
          <mxGeometry width="50" height="50" relative="1" as="geometry">
            <mxPoint x="4311" y="83" as="sourcePoint" />
            <mxPoint x="4242" y="136" as="targetPoint" />
          </mxGeometry>
        </mxCell>
        <mxCell id="eIfRhoeYhjTRWgRVjLV7-248" value="" style="endArrow=classic;html=1;rounded=0;" edge="1" parent="1" source="eIfRhoeYhjTRWgRVjLV7-132" target="eIfRhoeYhjTRWgRVjLV7-244">
          <mxGeometry width="50" height="50" relative="1" as="geometry">
            <mxPoint x="4635" y="-111" as="sourcePoint" />
            <mxPoint x="4437" y="-34" as="targetPoint" />
          </mxGeometry>
        </mxCell>
        <mxCell id="eIfRhoeYhjTRWgRVjLV7-249" value="" style="endArrow=classic;html=1;rounded=0;" edge="1" parent="1" source="eIfRhoeYhjTRWgRVjLV7-36" target="eIfRhoeYhjTRWgRVjLV7-132">
          <mxGeometry width="50" height="50" relative="1" as="geometry">
            <mxPoint x="4216" y="392" as="sourcePoint" />
            <mxPoint x="4181" y="446" as="targetPoint" />
          </mxGeometry>
        </mxCell>
        <mxCell id="eIfRhoeYhjTRWgRVjLV7-250" value="" style="endArrow=classic;html=1;rounded=0;" edge="1" parent="1" source="eIfRhoeYhjTRWgRVjLV7-210" target="eIfRhoeYhjTRWgRVjLV7-139">
          <mxGeometry width="50" height="50" relative="1" as="geometry">
            <mxPoint x="4498" y="959" as="sourcePoint" />
            <mxPoint x="4549" y="1017" as="targetPoint" />
          </mxGeometry>
        </mxCell>
        <mxCell id="eIfRhoeYhjTRWgRVjLV7-251" value="" style="endArrow=classic;html=1;rounded=0;" edge="1" parent="1" source="eIfRhoeYhjTRWgRVjLV7-214" target="eIfRhoeYhjTRWgRVjLV7-138">
          <mxGeometry width="50" height="50" relative="1" as="geometry">
            <mxPoint x="4492" y="951" as="sourcePoint" />
            <mxPoint x="4454" y="902" as="targetPoint" />
          </mxGeometry>
        </mxCell>
        <mxCell id="eIfRhoeYhjTRWgRVjLV7-252" value="" style="endArrow=classic;html=1;rounded=0;" edge="1" parent="1" source="eIfRhoeYhjTRWgRVjLV7-138" target="eIfRhoeYhjTRWgRVjLV7-234">
          <mxGeometry width="50" height="50" relative="1" as="geometry">
            <mxPoint x="4430" y="830" as="sourcePoint" />
            <mxPoint x="4426" y="633" as="targetPoint" />
          </mxGeometry>
        </mxCell>
        <mxCell id="eIfRhoeYhjTRWgRVjLV7-253" value="" style="endArrow=classic;html=1;rounded=0;" edge="1" parent="1" source="eIfRhoeYhjTRWgRVjLV7-229" target="eIfRhoeYhjTRWgRVjLV7-134">
          <mxGeometry width="50" height="50" relative="1" as="geometry">
            <mxPoint x="4350" y="563" as="sourcePoint" />
            <mxPoint x="4240" y="567" as="targetPoint" />
          </mxGeometry>
        </mxCell>
        <mxCell id="eIfRhoeYhjTRWgRVjLV7-254" value="" style="endArrow=classic;html=1;rounded=0;" edge="1" parent="1" source="eIfRhoeYhjTRWgRVjLV7-134" target="eIfRhoeYhjTRWgRVjLV7-215">
          <mxGeometry width="50" height="50" relative="1" as="geometry">
            <mxPoint x="4412" y="1080" as="sourcePoint" />
            <mxPoint x="4293" y="1245" as="targetPoint" />
          </mxGeometry>
        </mxCell>
      </root>
    </mxGraphModel>
  </diagram>
</mxfile>
